M48
;GenerationSoftware,Autodesk,EAGLE,9.6.0*%
;CreationDate,2020-05-06T22:02:07Z*%
FMAT,2
ICI,OFF
METRIC,TZ,000.000
T3C0.305
T2C1.016
T1C3.302
%
G90
M71
T1
X72644Y120396
X2540Y38100
X20320Y38100
X2540Y2540
X20320Y2540
X25908Y38100
X43688Y38100
X25908Y2540
X43688Y2540
X49276Y38100
X67056Y38100
X49276Y2540
X67056Y2540
X72644Y38100
X90424Y38100
X72644Y2540
X90424Y2540
X96012Y38100
X113792Y38100
X96012Y2540
X113792Y2540
X2540Y79248
X20320Y79248
X2540Y43688
X20320Y43688
X25908Y79248
X43688Y79248
X25908Y43688
X43688Y43688
X49276Y79248
X67056Y79248
X49276Y43688
X67056Y43688
X72644Y79248
X90424Y79248
X72644Y43688
X90424Y43688
X96012Y79248
X113792Y79248
X96012Y43688
X113792Y43688
X2540Y120396
X20320Y120396
X2540Y84836
X20320Y84836
X25908Y120396
X43688Y120396
X25908Y84836
X43688Y84836
X49276Y120396
X67056Y120396
X49276Y84836
X67056Y84836
X90424Y120396
X72644Y84836
X90424Y84836
X96012Y120396
X113792Y120396
X96012Y84836
X113792Y84836
T2
X8890Y1270
X11430Y1270
X13970Y1270
X32258Y1270
X34798Y1270
X37338Y1270
X55626Y1270
X58166Y1270
X60706Y1270
X78994Y1270
X81534Y1270
X84074Y1270
X102362Y1270
X104902Y1270
X107442Y1270
X8890Y42418
X11430Y42418
X13970Y42418
X32258Y42418
X34798Y42418
X37338Y42418
X55626Y42418
X58166Y42418
X60706Y42418
X78994Y42418
X81534Y42418
X84074Y42418
X102362Y42418
X104902Y42418
X107442Y42418
X8890Y83566
X11430Y83566
X13970Y83566
X32258Y83566
X34798Y83566
X37338Y83566
X55626Y83566
X58166Y83566
X60706Y83566
X78994Y83566
X81534Y83566
X84074Y83566
X102362Y83566
X104902Y83566
X107442Y83566
T3
X11239Y52741
X9525Y50038
X5080Y72898
X7620Y72898
X21590Y50038
X15240Y47498
X15748Y50292
X4572Y52705
X19050Y57150
X16510Y46228
X10160Y55550
X7620Y53213
X13970Y47498
X12700Y55550
X13970Y59690
X11887Y55499
X16510Y59690
X11049Y55499
X19050Y59690
X22225Y53086
X22098Y51562
X34608Y52741
X32893Y50038
X28448Y72898
X30988Y72898
X44958Y50038
X38608Y47498
X39116Y50292
X27940Y52705
X42418Y57150
X39878Y46228
X33528Y55550
X30988Y53213
X37338Y47498
X36068Y55550
X37338Y59690
X35255Y55499
X39878Y59690
X34417Y55499
X42418Y59690
X45593Y53086
X45466Y51562
X57975Y52741
X56261Y50038
X51816Y72898
X54356Y72898
X68326Y50038
X61976Y47498
X62484Y50292
X51308Y52705
X65786Y57150
X63246Y46228
X56896Y55550
X54356Y53213
X60706Y47498
X59436Y55550
X60706Y59690
X58623Y55499
X63246Y59690
X57785Y55499
X65786Y59690
X68961Y53086
X68834Y51562
X81344Y52741
X79629Y50038
X75184Y72898
X77724Y72898
X91694Y50038
X85344Y47498
X85852Y50292
X74676Y52705
X89154Y57150
X86614Y46228
X80264Y55550
X77724Y53213
X84074Y47498
X82804Y55550
X84074Y59690
X81991Y55499
X86614Y59690
X81153Y55499
X89154Y59690
X92329Y53086
X92202Y51562
X104711Y52741
X102997Y50038
X98552Y72898
X101092Y72898
X115062Y50038
X108712Y47498
X109220Y50292
X98044Y52705
X112522Y57150
X109982Y46228
X103632Y55550
X101092Y53213
X107442Y47498
X106172Y55550
X107442Y59690
X105359Y55499
X109982Y59690
X104521Y55499
X112522Y59690
X115697Y53086
X115570Y51562
X56896Y14402
X9525Y91186
X5080Y114046
X7620Y114046
X21590Y91186
X15240Y88646
X15748Y91440
X4572Y93853
X19050Y98298
X16510Y87376
X10160Y96698
X7620Y94361
X13970Y88646
X12700Y96698
X13970Y100838
X11887Y96647
X16510Y100838
X11049Y96647
X19050Y100838
X22225Y94234
X22098Y92710
X34608Y93889
X32893Y91186
X28448Y114046
X30988Y114046
X44958Y91186
X38608Y88646
X39116Y91440
X27940Y93853
X42418Y98298
X39878Y87376
X33528Y96698
X30988Y94361
X37338Y88646
X36068Y96698
X37338Y100838
X35255Y96647
X39878Y100838
X34417Y96647
X42418Y100838
X45593Y94234
X45466Y92710
X57975Y93889
X56261Y91186
X51816Y114046
X54356Y114046
X68326Y91186
X61976Y88646
X62484Y91440
X51308Y93853
X65786Y98298
X63246Y87376
X56896Y96698
X54356Y94361
X60706Y88646
X59436Y96698
X60706Y100838
X58623Y96647
X63246Y100838
X57785Y96647
X65786Y100838
X68961Y94234
X68834Y92710
X81344Y93889
X79629Y91186
X75184Y114046
X77724Y114046
X91694Y91186
X85344Y88646
X85852Y91440
X74676Y93853
X89154Y98298
X86614Y87376
X80264Y96698
X77724Y94361
X84074Y88646
X82804Y96698
X84074Y100838
X81991Y96647
X86614Y100838
X81153Y96647
X89154Y100838
X92329Y94234
X92202Y92710
X104711Y93889
X102997Y91186
X98552Y114046
X101092Y114046
X115062Y91186
X108712Y88646
X109220Y91440
X98044Y93853
X112522Y98298
X109982Y87376
X103632Y96698
X101092Y94361
X107442Y88646
X106172Y96698
X107442Y100838
X105359Y96647
X109982Y100838
X104521Y96647
X112522Y100838
X115697Y94234
X115570Y92710
X11239Y11593
X9525Y8890
X5080Y31750
X7620Y31750
X21590Y8890
X15240Y6350
X15748Y9144
X4572Y11557
X19050Y16002
X16510Y5080
X10160Y14402
X7620Y12065
X13970Y6350
X12700Y14402
X13970Y18542
X11887Y14351
X16510Y18542
X11049Y14351
X19050Y18542
X22225Y11938
X22098Y10414
X34608Y11593
X32893Y8890
X28448Y31750
X30988Y31750
X44958Y8890
X38608Y6350
X39116Y9144
X27940Y11557
X42418Y16002
X39878Y5080
X33528Y14402
X30988Y12065
X37338Y6350
X36068Y14402
X37338Y18542
X35255Y14351
X39878Y18542
X34417Y14351
X42418Y18542
X45593Y11938
X45466Y10414
X57975Y11593
X56261Y8890
X51816Y31750
X54356Y31750
X68326Y8890
X61976Y6350
X62484Y9144
X51308Y11557
X65786Y16002
X63246Y5080
X11239Y93889
X54356Y12065
X60706Y6350
X59436Y14402
X60706Y18542
X58623Y14351
X63246Y18542
X57785Y14351
X65786Y18542
X68961Y11938
X68834Y10414
X81344Y11593
X79629Y8890
X75184Y31750
X77724Y31750
X91694Y8890
X85344Y6350
X85852Y9144
X74676Y11557
X89154Y16002
X86614Y5080
X80264Y14402
X77724Y12065
X84074Y6350
X82804Y14402
X84074Y18542
X81991Y14351
X86614Y18542
X81153Y14351
X89154Y18542
X92329Y11938
X92202Y10414
X104711Y11593
X102997Y8890
X98552Y31750
X101092Y31750
X115062Y8890
X108712Y6350
X109220Y9144
X98044Y11557
X112522Y16002
X109982Y5080
X103632Y14402
X101092Y12065
X107442Y6350
X106172Y14402
X107442Y18542
X105359Y14351
X109982Y18542
X104521Y14351
X112522Y18542
X115697Y11938
X115570Y10414
M30