G04 EAGLE Gerber RS-274X export*
G75*
%MOMM*%
%FSLAX34Y34*%
%LPD*%
%INSoldermask Top*%
%IPPOS*%
%AMOC8*
5,1,8,0,0,1.08239X$1,22.5*%
G01*
%ADD10C,3.505200*%
%ADD11C,1.203200*%
%ADD12R,1.303200X1.203200*%
%ADD13C,0.505344*%
%ADD14R,1.553200X0.753200*%
%ADD15R,1.203200X1.303200*%
%ADD16C,2.082800*%
%ADD17R,1.333200X2.643200*%
%ADD18R,1.003200X1.103200*%
%ADD19C,1.270000*%
%ADD20C,1.703200*%


D10*
X25400Y381000D03*
X203200Y381000D03*
D11*
X220980Y7620D03*
X7620Y398780D03*
D12*
X29600Y101600D03*
X46600Y101600D03*
D13*
X43380Y92390D02*
X43380Y85410D01*
X43380Y92390D02*
X50360Y92390D01*
X50360Y85410D01*
X43380Y85410D01*
X43380Y90210D02*
X50360Y90210D01*
X25840Y92390D02*
X25840Y85410D01*
X25840Y92390D02*
X32820Y92390D01*
X32820Y85410D01*
X25840Y85410D01*
X25840Y90210D02*
X32820Y90210D01*
D12*
X122800Y88900D03*
X105800Y88900D03*
D10*
X25400Y25400D03*
X203200Y25400D03*
D14*
X128051Y117500D03*
X128051Y127000D03*
X128051Y136500D03*
X100549Y136500D03*
X100549Y127000D03*
X100549Y117500D03*
D15*
X177800Y160900D03*
X177800Y143900D03*
X50800Y160900D03*
X50800Y143900D03*
X76200Y160900D03*
X76200Y143900D03*
X152400Y160900D03*
X152400Y143900D03*
D16*
X88900Y12700D03*
X114300Y12700D03*
X139700Y12700D03*
D17*
X50800Y185600D03*
X76200Y185600D03*
X101600Y185600D03*
X127000Y185600D03*
X152400Y185600D03*
X177800Y185600D03*
X50800Y271600D03*
X76200Y271600D03*
X101600Y271600D03*
X127000Y271600D03*
X152400Y271600D03*
X177800Y271600D03*
D12*
X182000Y101600D03*
X199000Y101600D03*
D13*
X195780Y92390D02*
X195780Y85410D01*
X195780Y92390D02*
X202760Y92390D01*
X202760Y85410D01*
X195780Y85410D01*
X195780Y90210D02*
X202760Y90210D01*
X178240Y92390D02*
X178240Y85410D01*
X178240Y92390D02*
X185220Y92390D01*
X185220Y85410D01*
X178240Y85410D01*
X178240Y90210D02*
X185220Y90210D01*
D18*
X181000Y117000D03*
X200000Y117000D03*
X190500Y138000D03*
D10*
X259080Y381000D03*
X436880Y381000D03*
D11*
X454660Y7620D03*
X241300Y398780D03*
D12*
X263280Y101600D03*
X280280Y101600D03*
D13*
X277060Y92390D02*
X277060Y85410D01*
X277060Y92390D02*
X284040Y92390D01*
X284040Y85410D01*
X277060Y85410D01*
X277060Y90210D02*
X284040Y90210D01*
X259520Y92390D02*
X259520Y85410D01*
X259520Y92390D02*
X266500Y92390D01*
X266500Y85410D01*
X259520Y85410D01*
X259520Y90210D02*
X266500Y90210D01*
D12*
X356480Y88900D03*
X339480Y88900D03*
D10*
X259080Y25400D03*
X436880Y25400D03*
D14*
X361731Y117500D03*
X361731Y127000D03*
X361731Y136500D03*
X334229Y136500D03*
X334229Y127000D03*
X334229Y117500D03*
D15*
X411480Y160900D03*
X411480Y143900D03*
X284480Y160900D03*
X284480Y143900D03*
X309880Y160900D03*
X309880Y143900D03*
X386080Y160900D03*
X386080Y143900D03*
D16*
X322580Y12700D03*
X347980Y12700D03*
X373380Y12700D03*
D17*
X284480Y185600D03*
X309880Y185600D03*
X335280Y185600D03*
X360680Y185600D03*
X386080Y185600D03*
X411480Y185600D03*
X284480Y271600D03*
X309880Y271600D03*
X335280Y271600D03*
X360680Y271600D03*
X386080Y271600D03*
X411480Y271600D03*
D12*
X415680Y101600D03*
X432680Y101600D03*
D13*
X429460Y92390D02*
X429460Y85410D01*
X429460Y92390D02*
X436440Y92390D01*
X436440Y85410D01*
X429460Y85410D01*
X429460Y90210D02*
X436440Y90210D01*
X411920Y92390D02*
X411920Y85410D01*
X411920Y92390D02*
X418900Y92390D01*
X418900Y85410D01*
X411920Y85410D01*
X411920Y90210D02*
X418900Y90210D01*
D18*
X414680Y117000D03*
X433680Y117000D03*
X424180Y138000D03*
D10*
X492760Y381000D03*
X670560Y381000D03*
D11*
X688340Y7620D03*
X474980Y398780D03*
D12*
X496960Y101600D03*
X513960Y101600D03*
D13*
X510740Y92390D02*
X510740Y85410D01*
X510740Y92390D02*
X517720Y92390D01*
X517720Y85410D01*
X510740Y85410D01*
X510740Y90210D02*
X517720Y90210D01*
X493200Y92390D02*
X493200Y85410D01*
X493200Y92390D02*
X500180Y92390D01*
X500180Y85410D01*
X493200Y85410D01*
X493200Y90210D02*
X500180Y90210D01*
D12*
X590160Y88900D03*
X573160Y88900D03*
D10*
X492760Y25400D03*
X670560Y25400D03*
D14*
X595411Y117500D03*
X595411Y127000D03*
X595411Y136500D03*
X567909Y136500D03*
X567909Y127000D03*
X567909Y117500D03*
D15*
X645160Y160900D03*
X645160Y143900D03*
X518160Y160900D03*
X518160Y143900D03*
X543560Y160900D03*
X543560Y143900D03*
X619760Y160900D03*
X619760Y143900D03*
D16*
X556260Y12700D03*
X581660Y12700D03*
X607060Y12700D03*
D17*
X518160Y185600D03*
X543560Y185600D03*
X568960Y185600D03*
X594360Y185600D03*
X619760Y185600D03*
X645160Y185600D03*
X518160Y271600D03*
X543560Y271600D03*
X568960Y271600D03*
X594360Y271600D03*
X619760Y271600D03*
X645160Y271600D03*
D12*
X649360Y101600D03*
X666360Y101600D03*
D13*
X663140Y92390D02*
X663140Y85410D01*
X663140Y92390D02*
X670120Y92390D01*
X670120Y85410D01*
X663140Y85410D01*
X663140Y90210D02*
X670120Y90210D01*
X645600Y92390D02*
X645600Y85410D01*
X645600Y92390D02*
X652580Y92390D01*
X652580Y85410D01*
X645600Y85410D01*
X645600Y90210D02*
X652580Y90210D01*
D18*
X648360Y117000D03*
X667360Y117000D03*
X657860Y138000D03*
D10*
X726440Y381000D03*
X904240Y381000D03*
D11*
X922020Y7620D03*
X708660Y398780D03*
D12*
X730640Y101600D03*
X747640Y101600D03*
D13*
X744420Y92390D02*
X744420Y85410D01*
X744420Y92390D02*
X751400Y92390D01*
X751400Y85410D01*
X744420Y85410D01*
X744420Y90210D02*
X751400Y90210D01*
X726880Y92390D02*
X726880Y85410D01*
X726880Y92390D02*
X733860Y92390D01*
X733860Y85410D01*
X726880Y85410D01*
X726880Y90210D02*
X733860Y90210D01*
D12*
X823840Y88900D03*
X806840Y88900D03*
D10*
X726440Y25400D03*
X904240Y25400D03*
D14*
X829091Y117500D03*
X829091Y127000D03*
X829091Y136500D03*
X801589Y136500D03*
X801589Y127000D03*
X801589Y117500D03*
D15*
X878840Y160900D03*
X878840Y143900D03*
X751840Y160900D03*
X751840Y143900D03*
X777240Y160900D03*
X777240Y143900D03*
X853440Y160900D03*
X853440Y143900D03*
D16*
X789940Y12700D03*
X815340Y12700D03*
X840740Y12700D03*
D17*
X751840Y185600D03*
X777240Y185600D03*
X802640Y185600D03*
X828040Y185600D03*
X853440Y185600D03*
X878840Y185600D03*
X751840Y271600D03*
X777240Y271600D03*
X802640Y271600D03*
X828040Y271600D03*
X853440Y271600D03*
X878840Y271600D03*
D12*
X883040Y101600D03*
X900040Y101600D03*
D13*
X896820Y92390D02*
X896820Y85410D01*
X896820Y92390D02*
X903800Y92390D01*
X903800Y85410D01*
X896820Y85410D01*
X896820Y90210D02*
X903800Y90210D01*
X879280Y92390D02*
X879280Y85410D01*
X879280Y92390D02*
X886260Y92390D01*
X886260Y85410D01*
X879280Y85410D01*
X879280Y90210D02*
X886260Y90210D01*
D18*
X882040Y117000D03*
X901040Y117000D03*
X891540Y138000D03*
D10*
X960120Y381000D03*
X1137920Y381000D03*
D11*
X1155700Y7620D03*
X942340Y398780D03*
D12*
X964320Y101600D03*
X981320Y101600D03*
D13*
X978100Y92390D02*
X978100Y85410D01*
X978100Y92390D02*
X985080Y92390D01*
X985080Y85410D01*
X978100Y85410D01*
X978100Y90210D02*
X985080Y90210D01*
X960560Y92390D02*
X960560Y85410D01*
X960560Y92390D02*
X967540Y92390D01*
X967540Y85410D01*
X960560Y85410D01*
X960560Y90210D02*
X967540Y90210D01*
D12*
X1057520Y88900D03*
X1040520Y88900D03*
D10*
X960120Y25400D03*
X1137920Y25400D03*
D14*
X1062771Y117500D03*
X1062771Y127000D03*
X1062771Y136500D03*
X1035269Y136500D03*
X1035269Y127000D03*
X1035269Y117500D03*
D15*
X1112520Y160900D03*
X1112520Y143900D03*
X985520Y160900D03*
X985520Y143900D03*
X1010920Y160900D03*
X1010920Y143900D03*
X1087120Y160900D03*
X1087120Y143900D03*
D16*
X1023620Y12700D03*
X1049020Y12700D03*
X1074420Y12700D03*
D17*
X985520Y185600D03*
X1010920Y185600D03*
X1036320Y185600D03*
X1061720Y185600D03*
X1087120Y185600D03*
X1112520Y185600D03*
X985520Y271600D03*
X1010920Y271600D03*
X1036320Y271600D03*
X1061720Y271600D03*
X1087120Y271600D03*
X1112520Y271600D03*
D12*
X1116720Y101600D03*
X1133720Y101600D03*
D13*
X1130500Y92390D02*
X1130500Y85410D01*
X1130500Y92390D02*
X1137480Y92390D01*
X1137480Y85410D01*
X1130500Y85410D01*
X1130500Y90210D02*
X1137480Y90210D01*
X1112960Y92390D02*
X1112960Y85410D01*
X1112960Y92390D02*
X1119940Y92390D01*
X1119940Y85410D01*
X1112960Y85410D01*
X1112960Y90210D02*
X1119940Y90210D01*
D18*
X1115720Y117000D03*
X1134720Y117000D03*
X1125220Y138000D03*
D10*
X25400Y792480D03*
X203200Y792480D03*
D11*
X220980Y419100D03*
X7620Y810260D03*
D12*
X29600Y513080D03*
X46600Y513080D03*
D13*
X43380Y503870D02*
X43380Y496890D01*
X43380Y503870D02*
X50360Y503870D01*
X50360Y496890D01*
X43380Y496890D01*
X43380Y501690D02*
X50360Y501690D01*
X25840Y503870D02*
X25840Y496890D01*
X25840Y503870D02*
X32820Y503870D01*
X32820Y496890D01*
X25840Y496890D01*
X25840Y501690D02*
X32820Y501690D01*
D12*
X122800Y500380D03*
X105800Y500380D03*
D10*
X25400Y436880D03*
X203200Y436880D03*
D14*
X128051Y528980D03*
X128051Y538480D03*
X128051Y547980D03*
X100549Y547980D03*
X100549Y538480D03*
X100549Y528980D03*
D15*
X177800Y572380D03*
X177800Y555380D03*
X50800Y572380D03*
X50800Y555380D03*
X76200Y572380D03*
X76200Y555380D03*
X152400Y572380D03*
X152400Y555380D03*
D16*
X88900Y424180D03*
X114300Y424180D03*
X139700Y424180D03*
D17*
X50800Y597080D03*
X76200Y597080D03*
X101600Y597080D03*
X127000Y597080D03*
X152400Y597080D03*
X177800Y597080D03*
X50800Y683080D03*
X76200Y683080D03*
X101600Y683080D03*
X127000Y683080D03*
X152400Y683080D03*
X177800Y683080D03*
D12*
X182000Y513080D03*
X199000Y513080D03*
D13*
X195780Y503870D02*
X195780Y496890D01*
X195780Y503870D02*
X202760Y503870D01*
X202760Y496890D01*
X195780Y496890D01*
X195780Y501690D02*
X202760Y501690D01*
X178240Y503870D02*
X178240Y496890D01*
X178240Y503870D02*
X185220Y503870D01*
X185220Y496890D01*
X178240Y496890D01*
X178240Y501690D02*
X185220Y501690D01*
D18*
X181000Y528480D03*
X200000Y528480D03*
X190500Y549480D03*
D10*
X259080Y792480D03*
X436880Y792480D03*
D11*
X454660Y419100D03*
X241300Y810260D03*
D12*
X263280Y513080D03*
X280280Y513080D03*
D13*
X277060Y503870D02*
X277060Y496890D01*
X277060Y503870D02*
X284040Y503870D01*
X284040Y496890D01*
X277060Y496890D01*
X277060Y501690D02*
X284040Y501690D01*
X259520Y503870D02*
X259520Y496890D01*
X259520Y503870D02*
X266500Y503870D01*
X266500Y496890D01*
X259520Y496890D01*
X259520Y501690D02*
X266500Y501690D01*
D12*
X356480Y500380D03*
X339480Y500380D03*
D10*
X259080Y436880D03*
X436880Y436880D03*
D14*
X361731Y528980D03*
X361731Y538480D03*
X361731Y547980D03*
X334229Y547980D03*
X334229Y538480D03*
X334229Y528980D03*
D15*
X411480Y572380D03*
X411480Y555380D03*
X284480Y572380D03*
X284480Y555380D03*
X309880Y572380D03*
X309880Y555380D03*
X386080Y572380D03*
X386080Y555380D03*
D16*
X322580Y424180D03*
X347980Y424180D03*
X373380Y424180D03*
D17*
X284480Y597080D03*
X309880Y597080D03*
X335280Y597080D03*
X360680Y597080D03*
X386080Y597080D03*
X411480Y597080D03*
X284480Y683080D03*
X309880Y683080D03*
X335280Y683080D03*
X360680Y683080D03*
X386080Y683080D03*
X411480Y683080D03*
D12*
X415680Y513080D03*
X432680Y513080D03*
D13*
X429460Y503870D02*
X429460Y496890D01*
X429460Y503870D02*
X436440Y503870D01*
X436440Y496890D01*
X429460Y496890D01*
X429460Y501690D02*
X436440Y501690D01*
X411920Y503870D02*
X411920Y496890D01*
X411920Y503870D02*
X418900Y503870D01*
X418900Y496890D01*
X411920Y496890D01*
X411920Y501690D02*
X418900Y501690D01*
D18*
X414680Y528480D03*
X433680Y528480D03*
X424180Y549480D03*
D10*
X492760Y792480D03*
X670560Y792480D03*
D11*
X688340Y419100D03*
X474980Y810260D03*
D12*
X496960Y513080D03*
X513960Y513080D03*
D13*
X510740Y503870D02*
X510740Y496890D01*
X510740Y503870D02*
X517720Y503870D01*
X517720Y496890D01*
X510740Y496890D01*
X510740Y501690D02*
X517720Y501690D01*
X493200Y503870D02*
X493200Y496890D01*
X493200Y503870D02*
X500180Y503870D01*
X500180Y496890D01*
X493200Y496890D01*
X493200Y501690D02*
X500180Y501690D01*
D12*
X590160Y500380D03*
X573160Y500380D03*
D10*
X492760Y436880D03*
X670560Y436880D03*
D14*
X595411Y528980D03*
X595411Y538480D03*
X595411Y547980D03*
X567909Y547980D03*
X567909Y538480D03*
X567909Y528980D03*
D15*
X645160Y572380D03*
X645160Y555380D03*
X518160Y572380D03*
X518160Y555380D03*
X543560Y572380D03*
X543560Y555380D03*
X619760Y572380D03*
X619760Y555380D03*
D16*
X556260Y424180D03*
X581660Y424180D03*
X607060Y424180D03*
D17*
X518160Y597080D03*
X543560Y597080D03*
X568960Y597080D03*
X594360Y597080D03*
X619760Y597080D03*
X645160Y597080D03*
X518160Y683080D03*
X543560Y683080D03*
X568960Y683080D03*
X594360Y683080D03*
X619760Y683080D03*
X645160Y683080D03*
D12*
X649360Y513080D03*
X666360Y513080D03*
D13*
X663140Y503870D02*
X663140Y496890D01*
X663140Y503870D02*
X670120Y503870D01*
X670120Y496890D01*
X663140Y496890D01*
X663140Y501690D02*
X670120Y501690D01*
X645600Y503870D02*
X645600Y496890D01*
X645600Y503870D02*
X652580Y503870D01*
X652580Y496890D01*
X645600Y496890D01*
X645600Y501690D02*
X652580Y501690D01*
D18*
X648360Y528480D03*
X667360Y528480D03*
X657860Y549480D03*
D10*
X726440Y792480D03*
X904240Y792480D03*
D11*
X922020Y419100D03*
X708660Y810260D03*
D12*
X730640Y513080D03*
X747640Y513080D03*
D13*
X744420Y503870D02*
X744420Y496890D01*
X744420Y503870D02*
X751400Y503870D01*
X751400Y496890D01*
X744420Y496890D01*
X744420Y501690D02*
X751400Y501690D01*
X726880Y503870D02*
X726880Y496890D01*
X726880Y503870D02*
X733860Y503870D01*
X733860Y496890D01*
X726880Y496890D01*
X726880Y501690D02*
X733860Y501690D01*
D12*
X823840Y500380D03*
X806840Y500380D03*
D10*
X726440Y436880D03*
X904240Y436880D03*
D14*
X829091Y528980D03*
X829091Y538480D03*
X829091Y547980D03*
X801589Y547980D03*
X801589Y538480D03*
X801589Y528980D03*
D15*
X878840Y572380D03*
X878840Y555380D03*
X751840Y572380D03*
X751840Y555380D03*
X777240Y572380D03*
X777240Y555380D03*
X853440Y572380D03*
X853440Y555380D03*
D16*
X789940Y424180D03*
X815340Y424180D03*
X840740Y424180D03*
D17*
X751840Y597080D03*
X777240Y597080D03*
X802640Y597080D03*
X828040Y597080D03*
X853440Y597080D03*
X878840Y597080D03*
X751840Y683080D03*
X777240Y683080D03*
X802640Y683080D03*
X828040Y683080D03*
X853440Y683080D03*
X878840Y683080D03*
D12*
X883040Y513080D03*
X900040Y513080D03*
D13*
X896820Y503870D02*
X896820Y496890D01*
X896820Y503870D02*
X903800Y503870D01*
X903800Y496890D01*
X896820Y496890D01*
X896820Y501690D02*
X903800Y501690D01*
X879280Y503870D02*
X879280Y496890D01*
X879280Y503870D02*
X886260Y503870D01*
X886260Y496890D01*
X879280Y496890D01*
X879280Y501690D02*
X886260Y501690D01*
D18*
X882040Y528480D03*
X901040Y528480D03*
X891540Y549480D03*
D10*
X960120Y792480D03*
X1137920Y792480D03*
D11*
X1155700Y419100D03*
X942340Y810260D03*
D12*
X964320Y513080D03*
X981320Y513080D03*
D13*
X978100Y503870D02*
X978100Y496890D01*
X978100Y503870D02*
X985080Y503870D01*
X985080Y496890D01*
X978100Y496890D01*
X978100Y501690D02*
X985080Y501690D01*
X960560Y503870D02*
X960560Y496890D01*
X960560Y503870D02*
X967540Y503870D01*
X967540Y496890D01*
X960560Y496890D01*
X960560Y501690D02*
X967540Y501690D01*
D12*
X1057520Y500380D03*
X1040520Y500380D03*
D10*
X960120Y436880D03*
X1137920Y436880D03*
D14*
X1062771Y528980D03*
X1062771Y538480D03*
X1062771Y547980D03*
X1035269Y547980D03*
X1035269Y538480D03*
X1035269Y528980D03*
D15*
X1112520Y572380D03*
X1112520Y555380D03*
X985520Y572380D03*
X985520Y555380D03*
X1010920Y572380D03*
X1010920Y555380D03*
X1087120Y572380D03*
X1087120Y555380D03*
D16*
X1023620Y424180D03*
X1049020Y424180D03*
X1074420Y424180D03*
D17*
X985520Y597080D03*
X1010920Y597080D03*
X1036320Y597080D03*
X1061720Y597080D03*
X1087120Y597080D03*
X1112520Y597080D03*
X985520Y683080D03*
X1010920Y683080D03*
X1036320Y683080D03*
X1061720Y683080D03*
X1087120Y683080D03*
X1112520Y683080D03*
D12*
X1116720Y513080D03*
X1133720Y513080D03*
D13*
X1130500Y503870D02*
X1130500Y496890D01*
X1130500Y503870D02*
X1137480Y503870D01*
X1137480Y496890D01*
X1130500Y496890D01*
X1130500Y501690D02*
X1137480Y501690D01*
X1112960Y503870D02*
X1112960Y496890D01*
X1112960Y503870D02*
X1119940Y503870D01*
X1119940Y496890D01*
X1112960Y496890D01*
X1112960Y501690D02*
X1119940Y501690D01*
D18*
X1115720Y528480D03*
X1134720Y528480D03*
X1125220Y549480D03*
D10*
X25400Y1203960D03*
X203200Y1203960D03*
D11*
X220980Y830580D03*
X7620Y1221740D03*
D12*
X29600Y924560D03*
X46600Y924560D03*
D13*
X43380Y915350D02*
X43380Y908370D01*
X43380Y915350D02*
X50360Y915350D01*
X50360Y908370D01*
X43380Y908370D01*
X43380Y913170D02*
X50360Y913170D01*
X25840Y915350D02*
X25840Y908370D01*
X25840Y915350D02*
X32820Y915350D01*
X32820Y908370D01*
X25840Y908370D01*
X25840Y913170D02*
X32820Y913170D01*
D12*
X122800Y911860D03*
X105800Y911860D03*
D10*
X25400Y848360D03*
X203200Y848360D03*
D14*
X128051Y940460D03*
X128051Y949960D03*
X128051Y959460D03*
X100549Y959460D03*
X100549Y949960D03*
X100549Y940460D03*
D15*
X177800Y983860D03*
X177800Y966860D03*
X50800Y983860D03*
X50800Y966860D03*
X76200Y983860D03*
X76200Y966860D03*
X152400Y983860D03*
X152400Y966860D03*
D16*
X88900Y835660D03*
X114300Y835660D03*
X139700Y835660D03*
D17*
X50800Y1008560D03*
X76200Y1008560D03*
X101600Y1008560D03*
X127000Y1008560D03*
X152400Y1008560D03*
X177800Y1008560D03*
X50800Y1094560D03*
X76200Y1094560D03*
X101600Y1094560D03*
X127000Y1094560D03*
X152400Y1094560D03*
X177800Y1094560D03*
D12*
X182000Y924560D03*
X199000Y924560D03*
D13*
X195780Y915350D02*
X195780Y908370D01*
X195780Y915350D02*
X202760Y915350D01*
X202760Y908370D01*
X195780Y908370D01*
X195780Y913170D02*
X202760Y913170D01*
X178240Y915350D02*
X178240Y908370D01*
X178240Y915350D02*
X185220Y915350D01*
X185220Y908370D01*
X178240Y908370D01*
X178240Y913170D02*
X185220Y913170D01*
D18*
X181000Y939960D03*
X200000Y939960D03*
X190500Y960960D03*
D10*
X259080Y1203960D03*
X436880Y1203960D03*
D11*
X454660Y830580D03*
X241300Y1221740D03*
D12*
X263280Y924560D03*
X280280Y924560D03*
D13*
X277060Y915350D02*
X277060Y908370D01*
X277060Y915350D02*
X284040Y915350D01*
X284040Y908370D01*
X277060Y908370D01*
X277060Y913170D02*
X284040Y913170D01*
X259520Y915350D02*
X259520Y908370D01*
X259520Y915350D02*
X266500Y915350D01*
X266500Y908370D01*
X259520Y908370D01*
X259520Y913170D02*
X266500Y913170D01*
D12*
X356480Y911860D03*
X339480Y911860D03*
D10*
X259080Y848360D03*
X436880Y848360D03*
D14*
X361731Y940460D03*
X361731Y949960D03*
X361731Y959460D03*
X334229Y959460D03*
X334229Y949960D03*
X334229Y940460D03*
D15*
X411480Y983860D03*
X411480Y966860D03*
X284480Y983860D03*
X284480Y966860D03*
X309880Y983860D03*
X309880Y966860D03*
X386080Y983860D03*
X386080Y966860D03*
D16*
X322580Y835660D03*
X347980Y835660D03*
X373380Y835660D03*
D17*
X284480Y1008560D03*
X309880Y1008560D03*
X335280Y1008560D03*
X360680Y1008560D03*
X386080Y1008560D03*
X411480Y1008560D03*
X284480Y1094560D03*
X309880Y1094560D03*
X335280Y1094560D03*
X360680Y1094560D03*
X386080Y1094560D03*
X411480Y1094560D03*
D12*
X415680Y924560D03*
X432680Y924560D03*
D13*
X429460Y915350D02*
X429460Y908370D01*
X429460Y915350D02*
X436440Y915350D01*
X436440Y908370D01*
X429460Y908370D01*
X429460Y913170D02*
X436440Y913170D01*
X411920Y915350D02*
X411920Y908370D01*
X411920Y915350D02*
X418900Y915350D01*
X418900Y908370D01*
X411920Y908370D01*
X411920Y913170D02*
X418900Y913170D01*
D18*
X414680Y939960D03*
X433680Y939960D03*
X424180Y960960D03*
D10*
X492760Y1203960D03*
X670560Y1203960D03*
D11*
X688340Y830580D03*
X474980Y1221740D03*
D12*
X496960Y924560D03*
X513960Y924560D03*
D13*
X510740Y915350D02*
X510740Y908370D01*
X510740Y915350D02*
X517720Y915350D01*
X517720Y908370D01*
X510740Y908370D01*
X510740Y913170D02*
X517720Y913170D01*
X493200Y915350D02*
X493200Y908370D01*
X493200Y915350D02*
X500180Y915350D01*
X500180Y908370D01*
X493200Y908370D01*
X493200Y913170D02*
X500180Y913170D01*
D12*
X590160Y911860D03*
X573160Y911860D03*
D10*
X492760Y848360D03*
X670560Y848360D03*
D14*
X595411Y940460D03*
X595411Y949960D03*
X595411Y959460D03*
X567909Y959460D03*
X567909Y949960D03*
X567909Y940460D03*
D15*
X645160Y983860D03*
X645160Y966860D03*
X518160Y983860D03*
X518160Y966860D03*
X543560Y983860D03*
X543560Y966860D03*
X619760Y983860D03*
X619760Y966860D03*
D16*
X556260Y835660D03*
X581660Y835660D03*
X607060Y835660D03*
D17*
X518160Y1008560D03*
X543560Y1008560D03*
X568960Y1008560D03*
X594360Y1008560D03*
X619760Y1008560D03*
X645160Y1008560D03*
X518160Y1094560D03*
X543560Y1094560D03*
X568960Y1094560D03*
X594360Y1094560D03*
X619760Y1094560D03*
X645160Y1094560D03*
D12*
X649360Y924560D03*
X666360Y924560D03*
D13*
X663140Y915350D02*
X663140Y908370D01*
X663140Y915350D02*
X670120Y915350D01*
X670120Y908370D01*
X663140Y908370D01*
X663140Y913170D02*
X670120Y913170D01*
X645600Y915350D02*
X645600Y908370D01*
X645600Y915350D02*
X652580Y915350D01*
X652580Y908370D01*
X645600Y908370D01*
X645600Y913170D02*
X652580Y913170D01*
D18*
X648360Y939960D03*
X667360Y939960D03*
X657860Y960960D03*
D10*
X726440Y1203960D03*
X904240Y1203960D03*
D11*
X922020Y830580D03*
X708660Y1221740D03*
D12*
X730640Y924560D03*
X747640Y924560D03*
D13*
X744420Y915350D02*
X744420Y908370D01*
X744420Y915350D02*
X751400Y915350D01*
X751400Y908370D01*
X744420Y908370D01*
X744420Y913170D02*
X751400Y913170D01*
X726880Y915350D02*
X726880Y908370D01*
X726880Y915350D02*
X733860Y915350D01*
X733860Y908370D01*
X726880Y908370D01*
X726880Y913170D02*
X733860Y913170D01*
D12*
X823840Y911860D03*
X806840Y911860D03*
D10*
X726440Y848360D03*
X904240Y848360D03*
D14*
X829091Y940460D03*
X829091Y949960D03*
X829091Y959460D03*
X801589Y959460D03*
X801589Y949960D03*
X801589Y940460D03*
D15*
X878840Y983860D03*
X878840Y966860D03*
X751840Y983860D03*
X751840Y966860D03*
X777240Y983860D03*
X777240Y966860D03*
X853440Y983860D03*
X853440Y966860D03*
D16*
X789940Y835660D03*
X815340Y835660D03*
X840740Y835660D03*
D17*
X751840Y1008560D03*
X777240Y1008560D03*
X802640Y1008560D03*
X828040Y1008560D03*
X853440Y1008560D03*
X878840Y1008560D03*
X751840Y1094560D03*
X777240Y1094560D03*
X802640Y1094560D03*
X828040Y1094560D03*
X853440Y1094560D03*
X878840Y1094560D03*
D12*
X883040Y924560D03*
X900040Y924560D03*
D13*
X896820Y915350D02*
X896820Y908370D01*
X896820Y915350D02*
X903800Y915350D01*
X903800Y908370D01*
X896820Y908370D01*
X896820Y913170D02*
X903800Y913170D01*
X879280Y915350D02*
X879280Y908370D01*
X879280Y915350D02*
X886260Y915350D01*
X886260Y908370D01*
X879280Y908370D01*
X879280Y913170D02*
X886260Y913170D01*
D18*
X882040Y939960D03*
X901040Y939960D03*
X891540Y960960D03*
D10*
X960120Y1203960D03*
X1137920Y1203960D03*
D11*
X1155700Y830580D03*
X942340Y1221740D03*
D12*
X964320Y924560D03*
X981320Y924560D03*
D13*
X978100Y915350D02*
X978100Y908370D01*
X978100Y915350D02*
X985080Y915350D01*
X985080Y908370D01*
X978100Y908370D01*
X978100Y913170D02*
X985080Y913170D01*
X960560Y915350D02*
X960560Y908370D01*
X960560Y915350D02*
X967540Y915350D01*
X967540Y908370D01*
X960560Y908370D01*
X960560Y913170D02*
X967540Y913170D01*
D12*
X1057520Y911860D03*
X1040520Y911860D03*
D10*
X960120Y848360D03*
X1137920Y848360D03*
D14*
X1062771Y940460D03*
X1062771Y949960D03*
X1062771Y959460D03*
X1035269Y959460D03*
X1035269Y949960D03*
X1035269Y940460D03*
D15*
X1112520Y983860D03*
X1112520Y966860D03*
X985520Y983860D03*
X985520Y966860D03*
X1010920Y983860D03*
X1010920Y966860D03*
X1087120Y983860D03*
X1087120Y966860D03*
D16*
X1023620Y835660D03*
X1049020Y835660D03*
X1074420Y835660D03*
D17*
X985520Y1008560D03*
X1010920Y1008560D03*
X1036320Y1008560D03*
X1061720Y1008560D03*
X1087120Y1008560D03*
X1112520Y1008560D03*
X985520Y1094560D03*
X1010920Y1094560D03*
X1036320Y1094560D03*
X1061720Y1094560D03*
X1087120Y1094560D03*
X1112520Y1094560D03*
D12*
X1116720Y924560D03*
X1133720Y924560D03*
D13*
X1130500Y915350D02*
X1130500Y908370D01*
X1130500Y915350D02*
X1137480Y915350D01*
X1137480Y908370D01*
X1130500Y908370D01*
X1130500Y913170D02*
X1137480Y913170D01*
X1112960Y915350D02*
X1112960Y908370D01*
X1112960Y915350D02*
X1119940Y915350D01*
X1119940Y908370D01*
X1112960Y908370D01*
X1112960Y913170D02*
X1119940Y913170D01*
D18*
X1115720Y939960D03*
X1134720Y939960D03*
X1125220Y960960D03*
D11*
X68580Y1250315D03*
X1094105Y1250315D03*
D19*
X59525Y-20955D02*
X59528Y-20733D01*
X59536Y-20511D01*
X59550Y-20289D01*
X59569Y-20067D01*
X59593Y-19847D01*
X59623Y-19626D01*
X59658Y-19407D01*
X59699Y-19188D01*
X59745Y-18971D01*
X59796Y-18755D01*
X59853Y-18540D01*
X59915Y-18326D01*
X59982Y-18115D01*
X60054Y-17904D01*
X60132Y-17696D01*
X60214Y-17490D01*
X60302Y-17286D01*
X60394Y-17083D01*
X60492Y-16884D01*
X60594Y-16687D01*
X60701Y-16492D01*
X60813Y-16300D01*
X60930Y-16111D01*
X61051Y-15924D01*
X61177Y-15741D01*
X61307Y-15561D01*
X61442Y-15384D01*
X61580Y-15211D01*
X61723Y-15041D01*
X61871Y-14874D01*
X62022Y-14711D01*
X62177Y-14552D01*
X62336Y-14397D01*
X62499Y-14246D01*
X62666Y-14098D01*
X62836Y-13955D01*
X63009Y-13817D01*
X63186Y-13682D01*
X63366Y-13552D01*
X63549Y-13426D01*
X63736Y-13305D01*
X63925Y-13188D01*
X64117Y-13076D01*
X64312Y-12969D01*
X64509Y-12867D01*
X64708Y-12769D01*
X64911Y-12677D01*
X65115Y-12589D01*
X65321Y-12507D01*
X65529Y-12429D01*
X65740Y-12357D01*
X65951Y-12290D01*
X66165Y-12228D01*
X66380Y-12171D01*
X66596Y-12120D01*
X66813Y-12074D01*
X67032Y-12033D01*
X67251Y-11998D01*
X67472Y-11968D01*
X67692Y-11944D01*
X67914Y-11925D01*
X68136Y-11911D01*
X68358Y-11903D01*
X68580Y-11900D01*
X68802Y-11903D01*
X69024Y-11911D01*
X69246Y-11925D01*
X69468Y-11944D01*
X69688Y-11968D01*
X69909Y-11998D01*
X70128Y-12033D01*
X70347Y-12074D01*
X70564Y-12120D01*
X70780Y-12171D01*
X70995Y-12228D01*
X71209Y-12290D01*
X71420Y-12357D01*
X71631Y-12429D01*
X71839Y-12507D01*
X72045Y-12589D01*
X72249Y-12677D01*
X72452Y-12769D01*
X72651Y-12867D01*
X72848Y-12969D01*
X73043Y-13076D01*
X73235Y-13188D01*
X73424Y-13305D01*
X73611Y-13426D01*
X73794Y-13552D01*
X73974Y-13682D01*
X74151Y-13817D01*
X74324Y-13955D01*
X74494Y-14098D01*
X74661Y-14246D01*
X74824Y-14397D01*
X74983Y-14552D01*
X75138Y-14711D01*
X75289Y-14874D01*
X75437Y-15041D01*
X75580Y-15211D01*
X75718Y-15384D01*
X75853Y-15561D01*
X75983Y-15741D01*
X76109Y-15924D01*
X76230Y-16111D01*
X76347Y-16300D01*
X76459Y-16492D01*
X76566Y-16687D01*
X76668Y-16884D01*
X76766Y-17083D01*
X76858Y-17286D01*
X76946Y-17490D01*
X77028Y-17696D01*
X77106Y-17904D01*
X77178Y-18115D01*
X77245Y-18326D01*
X77307Y-18540D01*
X77364Y-18755D01*
X77415Y-18971D01*
X77461Y-19188D01*
X77502Y-19407D01*
X77537Y-19626D01*
X77567Y-19847D01*
X77591Y-20067D01*
X77610Y-20289D01*
X77624Y-20511D01*
X77632Y-20733D01*
X77635Y-20955D01*
X77632Y-21177D01*
X77624Y-21399D01*
X77610Y-21621D01*
X77591Y-21843D01*
X77567Y-22063D01*
X77537Y-22284D01*
X77502Y-22503D01*
X77461Y-22722D01*
X77415Y-22939D01*
X77364Y-23155D01*
X77307Y-23370D01*
X77245Y-23584D01*
X77178Y-23795D01*
X77106Y-24006D01*
X77028Y-24214D01*
X76946Y-24420D01*
X76858Y-24624D01*
X76766Y-24827D01*
X76668Y-25026D01*
X76566Y-25223D01*
X76459Y-25418D01*
X76347Y-25610D01*
X76230Y-25799D01*
X76109Y-25986D01*
X75983Y-26169D01*
X75853Y-26349D01*
X75718Y-26526D01*
X75580Y-26699D01*
X75437Y-26869D01*
X75289Y-27036D01*
X75138Y-27199D01*
X74983Y-27358D01*
X74824Y-27513D01*
X74661Y-27664D01*
X74494Y-27812D01*
X74324Y-27955D01*
X74151Y-28093D01*
X73974Y-28228D01*
X73794Y-28358D01*
X73611Y-28484D01*
X73424Y-28605D01*
X73235Y-28722D01*
X73043Y-28834D01*
X72848Y-28941D01*
X72651Y-29043D01*
X72452Y-29141D01*
X72249Y-29233D01*
X72045Y-29321D01*
X71839Y-29403D01*
X71631Y-29481D01*
X71420Y-29553D01*
X71209Y-29620D01*
X70995Y-29682D01*
X70780Y-29739D01*
X70564Y-29790D01*
X70347Y-29836D01*
X70128Y-29877D01*
X69909Y-29912D01*
X69688Y-29942D01*
X69468Y-29966D01*
X69246Y-29985D01*
X69024Y-29999D01*
X68802Y-30007D01*
X68580Y-30010D01*
X68358Y-30007D01*
X68136Y-29999D01*
X67914Y-29985D01*
X67692Y-29966D01*
X67472Y-29942D01*
X67251Y-29912D01*
X67032Y-29877D01*
X66813Y-29836D01*
X66596Y-29790D01*
X66380Y-29739D01*
X66165Y-29682D01*
X65951Y-29620D01*
X65740Y-29553D01*
X65529Y-29481D01*
X65321Y-29403D01*
X65115Y-29321D01*
X64911Y-29233D01*
X64708Y-29141D01*
X64509Y-29043D01*
X64312Y-28941D01*
X64117Y-28834D01*
X63925Y-28722D01*
X63736Y-28605D01*
X63549Y-28484D01*
X63366Y-28358D01*
X63186Y-28228D01*
X63009Y-28093D01*
X62836Y-27955D01*
X62666Y-27812D01*
X62499Y-27664D01*
X62336Y-27513D01*
X62177Y-27358D01*
X62022Y-27199D01*
X61871Y-27036D01*
X61723Y-26869D01*
X61580Y-26699D01*
X61442Y-26526D01*
X61307Y-26349D01*
X61177Y-26169D01*
X61051Y-25986D01*
X60930Y-25799D01*
X60813Y-25610D01*
X60701Y-25418D01*
X60594Y-25223D01*
X60492Y-25026D01*
X60394Y-24827D01*
X60302Y-24624D01*
X60214Y-24420D01*
X60132Y-24214D01*
X60054Y-24006D01*
X59982Y-23795D01*
X59915Y-23584D01*
X59853Y-23370D01*
X59796Y-23155D01*
X59745Y-22939D01*
X59699Y-22722D01*
X59658Y-22503D01*
X59623Y-22284D01*
X59593Y-22063D01*
X59569Y-21843D01*
X59550Y-21621D01*
X59536Y-21399D01*
X59528Y-21177D01*
X59525Y-20955D01*
D20*
X68580Y-20955D03*
M02*
