G04 EAGLE Gerber RS-274X export*
G75*
%MOMM*%
%FSLAX34Y34*%
%LPD*%
%INSoldermask Bottom*%
%IPPOS*%
%AMOC8*
5,1,8,0,0,1.08239X$1,22.5*%
G01*
%ADD10C,3.505200*%
%ADD11C,1.203200*%
%ADD12R,1.473200X0.863600*%
%ADD13C,2.082800*%

G36*
X494095Y934732D02*
X494095Y934732D01*
X494161Y934734D01*
X494204Y934752D01*
X494251Y934760D01*
X494308Y934794D01*
X494368Y934819D01*
X494403Y934850D01*
X494444Y934875D01*
X494486Y934926D01*
X494534Y934970D01*
X494556Y935012D01*
X494585Y935049D01*
X494606Y935111D01*
X494637Y935170D01*
X494645Y935224D01*
X494657Y935261D01*
X494656Y935301D01*
X494664Y935355D01*
X494664Y939165D01*
X494653Y939230D01*
X494651Y939296D01*
X494633Y939339D01*
X494625Y939386D01*
X494591Y939443D01*
X494566Y939503D01*
X494535Y939538D01*
X494510Y939579D01*
X494459Y939621D01*
X494415Y939669D01*
X494373Y939691D01*
X494336Y939720D01*
X494274Y939741D01*
X494215Y939772D01*
X494161Y939780D01*
X494124Y939792D01*
X494084Y939791D01*
X494030Y939799D01*
X491490Y939799D01*
X491425Y939788D01*
X491359Y939786D01*
X491316Y939768D01*
X491269Y939760D01*
X491212Y939726D01*
X491152Y939701D01*
X491117Y939670D01*
X491076Y939645D01*
X491035Y939594D01*
X490986Y939550D01*
X490964Y939508D01*
X490935Y939471D01*
X490914Y939409D01*
X490883Y939350D01*
X490875Y939296D01*
X490863Y939259D01*
X490863Y939255D01*
X490863Y939254D01*
X490864Y939219D01*
X490856Y939165D01*
X490856Y935355D01*
X490867Y935290D01*
X490869Y935224D01*
X490887Y935181D01*
X490895Y935134D01*
X490929Y935077D01*
X490954Y935017D01*
X490985Y934982D01*
X491010Y934941D01*
X491061Y934900D01*
X491105Y934851D01*
X491147Y934829D01*
X491184Y934800D01*
X491246Y934779D01*
X491305Y934748D01*
X491359Y934740D01*
X491396Y934728D01*
X491436Y934729D01*
X491490Y934721D01*
X494030Y934721D01*
X494095Y934732D01*
G37*
G36*
X905575Y934732D02*
X905575Y934732D01*
X905641Y934734D01*
X905684Y934752D01*
X905731Y934760D01*
X905788Y934794D01*
X905848Y934819D01*
X905883Y934850D01*
X905924Y934875D01*
X905966Y934926D01*
X906014Y934970D01*
X906036Y935012D01*
X906065Y935049D01*
X906086Y935111D01*
X906117Y935170D01*
X906125Y935224D01*
X906137Y935261D01*
X906136Y935301D01*
X906144Y935355D01*
X906144Y939165D01*
X906133Y939230D01*
X906131Y939296D01*
X906113Y939339D01*
X906105Y939386D01*
X906071Y939443D01*
X906046Y939503D01*
X906015Y939538D01*
X905990Y939579D01*
X905939Y939621D01*
X905895Y939669D01*
X905853Y939691D01*
X905816Y939720D01*
X905754Y939741D01*
X905695Y939772D01*
X905641Y939780D01*
X905604Y939792D01*
X905564Y939791D01*
X905510Y939799D01*
X902970Y939799D01*
X902905Y939788D01*
X902839Y939786D01*
X902796Y939768D01*
X902749Y939760D01*
X902692Y939726D01*
X902632Y939701D01*
X902597Y939670D01*
X902556Y939645D01*
X902515Y939594D01*
X902466Y939550D01*
X902444Y939508D01*
X902415Y939471D01*
X902394Y939409D01*
X902363Y939350D01*
X902355Y939296D01*
X902343Y939259D01*
X902343Y939255D01*
X902343Y939254D01*
X902344Y939219D01*
X902336Y939165D01*
X902336Y935355D01*
X902347Y935290D01*
X902349Y935224D01*
X902367Y935181D01*
X902375Y935134D01*
X902409Y935077D01*
X902434Y935017D01*
X902465Y934982D01*
X902490Y934941D01*
X902541Y934900D01*
X902585Y934851D01*
X902627Y934829D01*
X902664Y934800D01*
X902726Y934779D01*
X902785Y934748D01*
X902839Y934740D01*
X902876Y934728D01*
X902916Y934729D01*
X902970Y934721D01*
X905510Y934721D01*
X905575Y934732D01*
G37*
G36*
X204535Y934732D02*
X204535Y934732D01*
X204601Y934734D01*
X204644Y934752D01*
X204691Y934760D01*
X204748Y934794D01*
X204808Y934819D01*
X204843Y934850D01*
X204884Y934875D01*
X204926Y934926D01*
X204974Y934970D01*
X204996Y935012D01*
X205025Y935049D01*
X205046Y935111D01*
X205077Y935170D01*
X205085Y935224D01*
X205097Y935261D01*
X205096Y935301D01*
X205104Y935355D01*
X205104Y939165D01*
X205093Y939230D01*
X205091Y939296D01*
X205073Y939339D01*
X205065Y939386D01*
X205031Y939443D01*
X205006Y939503D01*
X204975Y939538D01*
X204950Y939579D01*
X204899Y939621D01*
X204855Y939669D01*
X204813Y939691D01*
X204776Y939720D01*
X204714Y939741D01*
X204655Y939772D01*
X204601Y939780D01*
X204564Y939792D01*
X204524Y939791D01*
X204470Y939799D01*
X201930Y939799D01*
X201865Y939788D01*
X201799Y939786D01*
X201756Y939768D01*
X201709Y939760D01*
X201652Y939726D01*
X201592Y939701D01*
X201557Y939670D01*
X201516Y939645D01*
X201475Y939594D01*
X201426Y939550D01*
X201404Y939508D01*
X201375Y939471D01*
X201354Y939409D01*
X201323Y939350D01*
X201315Y939296D01*
X201303Y939259D01*
X201303Y939255D01*
X201303Y939254D01*
X201304Y939219D01*
X201296Y939165D01*
X201296Y935355D01*
X201307Y935290D01*
X201309Y935224D01*
X201327Y935181D01*
X201335Y935134D01*
X201369Y935077D01*
X201394Y935017D01*
X201425Y934982D01*
X201450Y934941D01*
X201501Y934900D01*
X201545Y934851D01*
X201587Y934829D01*
X201624Y934800D01*
X201686Y934779D01*
X201745Y934748D01*
X201799Y934740D01*
X201836Y934728D01*
X201876Y934729D01*
X201930Y934721D01*
X204470Y934721D01*
X204535Y934732D01*
G37*
G36*
X1139255Y934732D02*
X1139255Y934732D01*
X1139321Y934734D01*
X1139364Y934752D01*
X1139411Y934760D01*
X1139468Y934794D01*
X1139528Y934819D01*
X1139563Y934850D01*
X1139604Y934875D01*
X1139646Y934926D01*
X1139694Y934970D01*
X1139716Y935012D01*
X1139745Y935049D01*
X1139766Y935111D01*
X1139797Y935170D01*
X1139805Y935224D01*
X1139817Y935261D01*
X1139816Y935301D01*
X1139824Y935355D01*
X1139824Y939165D01*
X1139813Y939230D01*
X1139811Y939296D01*
X1139793Y939339D01*
X1139785Y939386D01*
X1139751Y939443D01*
X1139726Y939503D01*
X1139695Y939538D01*
X1139670Y939579D01*
X1139619Y939621D01*
X1139575Y939669D01*
X1139533Y939691D01*
X1139496Y939720D01*
X1139434Y939741D01*
X1139375Y939772D01*
X1139321Y939780D01*
X1139284Y939792D01*
X1139244Y939791D01*
X1139190Y939799D01*
X1136650Y939799D01*
X1136585Y939788D01*
X1136519Y939786D01*
X1136476Y939768D01*
X1136429Y939760D01*
X1136372Y939726D01*
X1136312Y939701D01*
X1136277Y939670D01*
X1136236Y939645D01*
X1136195Y939594D01*
X1136146Y939550D01*
X1136124Y939508D01*
X1136095Y939471D01*
X1136074Y939409D01*
X1136043Y939350D01*
X1136035Y939296D01*
X1136023Y939259D01*
X1136023Y939255D01*
X1136023Y939254D01*
X1136024Y939219D01*
X1136016Y939165D01*
X1136016Y935355D01*
X1136027Y935290D01*
X1136029Y935224D01*
X1136047Y935181D01*
X1136055Y935134D01*
X1136089Y935077D01*
X1136114Y935017D01*
X1136145Y934982D01*
X1136170Y934941D01*
X1136221Y934900D01*
X1136265Y934851D01*
X1136307Y934829D01*
X1136344Y934800D01*
X1136406Y934779D01*
X1136465Y934748D01*
X1136519Y934740D01*
X1136556Y934728D01*
X1136596Y934729D01*
X1136650Y934721D01*
X1139190Y934721D01*
X1139255Y934732D01*
G37*
G36*
X961455Y934732D02*
X961455Y934732D01*
X961521Y934734D01*
X961564Y934752D01*
X961611Y934760D01*
X961668Y934794D01*
X961728Y934819D01*
X961763Y934850D01*
X961804Y934875D01*
X961846Y934926D01*
X961894Y934970D01*
X961916Y935012D01*
X961945Y935049D01*
X961966Y935111D01*
X961997Y935170D01*
X962005Y935224D01*
X962017Y935261D01*
X962016Y935301D01*
X962024Y935355D01*
X962024Y939165D01*
X962013Y939230D01*
X962011Y939296D01*
X961993Y939339D01*
X961985Y939386D01*
X961951Y939443D01*
X961926Y939503D01*
X961895Y939538D01*
X961870Y939579D01*
X961819Y939621D01*
X961775Y939669D01*
X961733Y939691D01*
X961696Y939720D01*
X961634Y939741D01*
X961575Y939772D01*
X961521Y939780D01*
X961484Y939792D01*
X961444Y939791D01*
X961390Y939799D01*
X958850Y939799D01*
X958785Y939788D01*
X958719Y939786D01*
X958676Y939768D01*
X958629Y939760D01*
X958572Y939726D01*
X958512Y939701D01*
X958477Y939670D01*
X958436Y939645D01*
X958395Y939594D01*
X958346Y939550D01*
X958324Y939508D01*
X958295Y939471D01*
X958274Y939409D01*
X958243Y939350D01*
X958235Y939296D01*
X958223Y939259D01*
X958223Y939255D01*
X958223Y939254D01*
X958224Y939219D01*
X958216Y939165D01*
X958216Y935355D01*
X958227Y935290D01*
X958229Y935224D01*
X958247Y935181D01*
X958255Y935134D01*
X958289Y935077D01*
X958314Y935017D01*
X958345Y934982D01*
X958370Y934941D01*
X958421Y934900D01*
X958465Y934851D01*
X958507Y934829D01*
X958544Y934800D01*
X958606Y934779D01*
X958665Y934748D01*
X958719Y934740D01*
X958756Y934728D01*
X958796Y934729D01*
X958850Y934721D01*
X961390Y934721D01*
X961455Y934732D01*
G37*
G36*
X26735Y934732D02*
X26735Y934732D01*
X26801Y934734D01*
X26844Y934752D01*
X26891Y934760D01*
X26948Y934794D01*
X27008Y934819D01*
X27043Y934850D01*
X27084Y934875D01*
X27126Y934926D01*
X27174Y934970D01*
X27196Y935012D01*
X27225Y935049D01*
X27246Y935111D01*
X27277Y935170D01*
X27285Y935224D01*
X27297Y935261D01*
X27296Y935301D01*
X27304Y935355D01*
X27304Y939165D01*
X27293Y939230D01*
X27291Y939296D01*
X27273Y939339D01*
X27265Y939386D01*
X27231Y939443D01*
X27206Y939503D01*
X27175Y939538D01*
X27150Y939579D01*
X27099Y939621D01*
X27055Y939669D01*
X27013Y939691D01*
X26976Y939720D01*
X26914Y939741D01*
X26855Y939772D01*
X26801Y939780D01*
X26764Y939792D01*
X26724Y939791D01*
X26670Y939799D01*
X24130Y939799D01*
X24065Y939788D01*
X23999Y939786D01*
X23956Y939768D01*
X23909Y939760D01*
X23852Y939726D01*
X23792Y939701D01*
X23757Y939670D01*
X23716Y939645D01*
X23675Y939594D01*
X23626Y939550D01*
X23604Y939508D01*
X23575Y939471D01*
X23554Y939409D01*
X23523Y939350D01*
X23515Y939296D01*
X23503Y939259D01*
X23503Y939255D01*
X23503Y939254D01*
X23504Y939219D01*
X23496Y939165D01*
X23496Y935355D01*
X23507Y935290D01*
X23509Y935224D01*
X23527Y935181D01*
X23535Y935134D01*
X23569Y935077D01*
X23594Y935017D01*
X23625Y934982D01*
X23650Y934941D01*
X23701Y934900D01*
X23745Y934851D01*
X23787Y934829D01*
X23824Y934800D01*
X23886Y934779D01*
X23945Y934748D01*
X23999Y934740D01*
X24036Y934728D01*
X24076Y934729D01*
X24130Y934721D01*
X26670Y934721D01*
X26735Y934732D01*
G37*
G36*
X438215Y934732D02*
X438215Y934732D01*
X438281Y934734D01*
X438324Y934752D01*
X438371Y934760D01*
X438428Y934794D01*
X438488Y934819D01*
X438523Y934850D01*
X438564Y934875D01*
X438606Y934926D01*
X438654Y934970D01*
X438676Y935012D01*
X438705Y935049D01*
X438726Y935111D01*
X438757Y935170D01*
X438765Y935224D01*
X438777Y935261D01*
X438776Y935301D01*
X438784Y935355D01*
X438784Y939165D01*
X438773Y939230D01*
X438771Y939296D01*
X438753Y939339D01*
X438745Y939386D01*
X438711Y939443D01*
X438686Y939503D01*
X438655Y939538D01*
X438630Y939579D01*
X438579Y939621D01*
X438535Y939669D01*
X438493Y939691D01*
X438456Y939720D01*
X438394Y939741D01*
X438335Y939772D01*
X438281Y939780D01*
X438244Y939792D01*
X438204Y939791D01*
X438150Y939799D01*
X435610Y939799D01*
X435545Y939788D01*
X435479Y939786D01*
X435436Y939768D01*
X435389Y939760D01*
X435332Y939726D01*
X435272Y939701D01*
X435237Y939670D01*
X435196Y939645D01*
X435155Y939594D01*
X435106Y939550D01*
X435084Y939508D01*
X435055Y939471D01*
X435034Y939409D01*
X435003Y939350D01*
X434995Y939296D01*
X434983Y939259D01*
X434983Y939255D01*
X434983Y939254D01*
X434984Y939219D01*
X434976Y939165D01*
X434976Y935355D01*
X434987Y935290D01*
X434989Y935224D01*
X435007Y935181D01*
X435015Y935134D01*
X435049Y935077D01*
X435074Y935017D01*
X435105Y934982D01*
X435130Y934941D01*
X435181Y934900D01*
X435225Y934851D01*
X435267Y934829D01*
X435304Y934800D01*
X435366Y934779D01*
X435425Y934748D01*
X435479Y934740D01*
X435516Y934728D01*
X435556Y934729D01*
X435610Y934721D01*
X438150Y934721D01*
X438215Y934732D01*
G37*
G36*
X260415Y934732D02*
X260415Y934732D01*
X260481Y934734D01*
X260524Y934752D01*
X260571Y934760D01*
X260628Y934794D01*
X260688Y934819D01*
X260723Y934850D01*
X260764Y934875D01*
X260806Y934926D01*
X260854Y934970D01*
X260876Y935012D01*
X260905Y935049D01*
X260926Y935111D01*
X260957Y935170D01*
X260965Y935224D01*
X260977Y935261D01*
X260976Y935301D01*
X260984Y935355D01*
X260984Y939165D01*
X260973Y939230D01*
X260971Y939296D01*
X260953Y939339D01*
X260945Y939386D01*
X260911Y939443D01*
X260886Y939503D01*
X260855Y939538D01*
X260830Y939579D01*
X260779Y939621D01*
X260735Y939669D01*
X260693Y939691D01*
X260656Y939720D01*
X260594Y939741D01*
X260535Y939772D01*
X260481Y939780D01*
X260444Y939792D01*
X260404Y939791D01*
X260350Y939799D01*
X257810Y939799D01*
X257745Y939788D01*
X257679Y939786D01*
X257636Y939768D01*
X257589Y939760D01*
X257532Y939726D01*
X257472Y939701D01*
X257437Y939670D01*
X257396Y939645D01*
X257355Y939594D01*
X257306Y939550D01*
X257284Y939508D01*
X257255Y939471D01*
X257234Y939409D01*
X257203Y939350D01*
X257195Y939296D01*
X257183Y939259D01*
X257183Y939255D01*
X257183Y939254D01*
X257184Y939219D01*
X257176Y939165D01*
X257176Y935355D01*
X257187Y935290D01*
X257189Y935224D01*
X257207Y935181D01*
X257215Y935134D01*
X257249Y935077D01*
X257274Y935017D01*
X257305Y934982D01*
X257330Y934941D01*
X257381Y934900D01*
X257425Y934851D01*
X257467Y934829D01*
X257504Y934800D01*
X257566Y934779D01*
X257625Y934748D01*
X257679Y934740D01*
X257716Y934728D01*
X257756Y934729D01*
X257810Y934721D01*
X260350Y934721D01*
X260415Y934732D01*
G37*
G36*
X727775Y934732D02*
X727775Y934732D01*
X727841Y934734D01*
X727884Y934752D01*
X727931Y934760D01*
X727988Y934794D01*
X728048Y934819D01*
X728083Y934850D01*
X728124Y934875D01*
X728166Y934926D01*
X728214Y934970D01*
X728236Y935012D01*
X728265Y935049D01*
X728286Y935111D01*
X728317Y935170D01*
X728325Y935224D01*
X728337Y935261D01*
X728336Y935301D01*
X728344Y935355D01*
X728344Y939165D01*
X728333Y939230D01*
X728331Y939296D01*
X728313Y939339D01*
X728305Y939386D01*
X728271Y939443D01*
X728246Y939503D01*
X728215Y939538D01*
X728190Y939579D01*
X728139Y939621D01*
X728095Y939669D01*
X728053Y939691D01*
X728016Y939720D01*
X727954Y939741D01*
X727895Y939772D01*
X727841Y939780D01*
X727804Y939792D01*
X727764Y939791D01*
X727710Y939799D01*
X725170Y939799D01*
X725105Y939788D01*
X725039Y939786D01*
X724996Y939768D01*
X724949Y939760D01*
X724892Y939726D01*
X724832Y939701D01*
X724797Y939670D01*
X724756Y939645D01*
X724715Y939594D01*
X724666Y939550D01*
X724644Y939508D01*
X724615Y939471D01*
X724594Y939409D01*
X724563Y939350D01*
X724555Y939296D01*
X724543Y939259D01*
X724543Y939255D01*
X724543Y939254D01*
X724544Y939219D01*
X724536Y939165D01*
X724536Y935355D01*
X724547Y935290D01*
X724549Y935224D01*
X724567Y935181D01*
X724575Y935134D01*
X724609Y935077D01*
X724634Y935017D01*
X724665Y934982D01*
X724690Y934941D01*
X724741Y934900D01*
X724785Y934851D01*
X724827Y934829D01*
X724864Y934800D01*
X724926Y934779D01*
X724985Y934748D01*
X725039Y934740D01*
X725076Y934728D01*
X725116Y934729D01*
X725170Y934721D01*
X727710Y934721D01*
X727775Y934732D01*
G37*
G36*
X671895Y934732D02*
X671895Y934732D01*
X671961Y934734D01*
X672004Y934752D01*
X672051Y934760D01*
X672108Y934794D01*
X672168Y934819D01*
X672203Y934850D01*
X672244Y934875D01*
X672286Y934926D01*
X672334Y934970D01*
X672356Y935012D01*
X672385Y935049D01*
X672406Y935111D01*
X672437Y935170D01*
X672445Y935224D01*
X672457Y935261D01*
X672456Y935301D01*
X672464Y935355D01*
X672464Y939165D01*
X672453Y939230D01*
X672451Y939296D01*
X672433Y939339D01*
X672425Y939386D01*
X672391Y939443D01*
X672366Y939503D01*
X672335Y939538D01*
X672310Y939579D01*
X672259Y939621D01*
X672215Y939669D01*
X672173Y939691D01*
X672136Y939720D01*
X672074Y939741D01*
X672015Y939772D01*
X671961Y939780D01*
X671924Y939792D01*
X671884Y939791D01*
X671830Y939799D01*
X669290Y939799D01*
X669225Y939788D01*
X669159Y939786D01*
X669116Y939768D01*
X669069Y939760D01*
X669012Y939726D01*
X668952Y939701D01*
X668917Y939670D01*
X668876Y939645D01*
X668835Y939594D01*
X668786Y939550D01*
X668764Y939508D01*
X668735Y939471D01*
X668714Y939409D01*
X668683Y939350D01*
X668675Y939296D01*
X668663Y939259D01*
X668663Y939255D01*
X668663Y939254D01*
X668664Y939219D01*
X668656Y939165D01*
X668656Y935355D01*
X668667Y935290D01*
X668669Y935224D01*
X668687Y935181D01*
X668695Y935134D01*
X668729Y935077D01*
X668754Y935017D01*
X668785Y934982D01*
X668810Y934941D01*
X668861Y934900D01*
X668905Y934851D01*
X668947Y934829D01*
X668984Y934800D01*
X669046Y934779D01*
X669105Y934748D01*
X669159Y934740D01*
X669196Y934728D01*
X669236Y934729D01*
X669290Y934721D01*
X671830Y934721D01*
X671895Y934732D01*
G37*
G36*
X494095Y523252D02*
X494095Y523252D01*
X494161Y523254D01*
X494204Y523272D01*
X494251Y523280D01*
X494308Y523314D01*
X494368Y523339D01*
X494403Y523370D01*
X494444Y523395D01*
X494486Y523446D01*
X494534Y523490D01*
X494556Y523532D01*
X494585Y523569D01*
X494606Y523631D01*
X494637Y523690D01*
X494645Y523744D01*
X494657Y523781D01*
X494656Y523821D01*
X494664Y523875D01*
X494664Y527685D01*
X494653Y527750D01*
X494651Y527816D01*
X494633Y527859D01*
X494625Y527906D01*
X494591Y527963D01*
X494566Y528023D01*
X494535Y528058D01*
X494510Y528099D01*
X494459Y528141D01*
X494415Y528189D01*
X494373Y528211D01*
X494336Y528240D01*
X494274Y528261D01*
X494215Y528292D01*
X494161Y528300D01*
X494124Y528312D01*
X494084Y528311D01*
X494030Y528319D01*
X491490Y528319D01*
X491425Y528308D01*
X491359Y528306D01*
X491316Y528288D01*
X491269Y528280D01*
X491212Y528246D01*
X491152Y528221D01*
X491117Y528190D01*
X491076Y528165D01*
X491035Y528114D01*
X490986Y528070D01*
X490964Y528028D01*
X490935Y527991D01*
X490914Y527929D01*
X490883Y527870D01*
X490875Y527816D01*
X490863Y527779D01*
X490863Y527775D01*
X490863Y527774D01*
X490864Y527739D01*
X490856Y527685D01*
X490856Y523875D01*
X490867Y523810D01*
X490869Y523744D01*
X490887Y523701D01*
X490895Y523654D01*
X490929Y523597D01*
X490954Y523537D01*
X490985Y523502D01*
X491010Y523461D01*
X491061Y523420D01*
X491105Y523371D01*
X491147Y523349D01*
X491184Y523320D01*
X491246Y523299D01*
X491305Y523268D01*
X491359Y523260D01*
X491396Y523248D01*
X491436Y523249D01*
X491490Y523241D01*
X494030Y523241D01*
X494095Y523252D01*
G37*
G36*
X671895Y523252D02*
X671895Y523252D01*
X671961Y523254D01*
X672004Y523272D01*
X672051Y523280D01*
X672108Y523314D01*
X672168Y523339D01*
X672203Y523370D01*
X672244Y523395D01*
X672286Y523446D01*
X672334Y523490D01*
X672356Y523532D01*
X672385Y523569D01*
X672406Y523631D01*
X672437Y523690D01*
X672445Y523744D01*
X672457Y523781D01*
X672456Y523821D01*
X672464Y523875D01*
X672464Y527685D01*
X672453Y527750D01*
X672451Y527816D01*
X672433Y527859D01*
X672425Y527906D01*
X672391Y527963D01*
X672366Y528023D01*
X672335Y528058D01*
X672310Y528099D01*
X672259Y528141D01*
X672215Y528189D01*
X672173Y528211D01*
X672136Y528240D01*
X672074Y528261D01*
X672015Y528292D01*
X671961Y528300D01*
X671924Y528312D01*
X671884Y528311D01*
X671830Y528319D01*
X669290Y528319D01*
X669225Y528308D01*
X669159Y528306D01*
X669116Y528288D01*
X669069Y528280D01*
X669012Y528246D01*
X668952Y528221D01*
X668917Y528190D01*
X668876Y528165D01*
X668835Y528114D01*
X668786Y528070D01*
X668764Y528028D01*
X668735Y527991D01*
X668714Y527929D01*
X668683Y527870D01*
X668675Y527816D01*
X668663Y527779D01*
X668663Y527775D01*
X668663Y527774D01*
X668664Y527739D01*
X668656Y527685D01*
X668656Y523875D01*
X668667Y523810D01*
X668669Y523744D01*
X668687Y523701D01*
X668695Y523654D01*
X668729Y523597D01*
X668754Y523537D01*
X668785Y523502D01*
X668810Y523461D01*
X668861Y523420D01*
X668905Y523371D01*
X668947Y523349D01*
X668984Y523320D01*
X669046Y523299D01*
X669105Y523268D01*
X669159Y523260D01*
X669196Y523248D01*
X669236Y523249D01*
X669290Y523241D01*
X671830Y523241D01*
X671895Y523252D01*
G37*
G36*
X26735Y523252D02*
X26735Y523252D01*
X26801Y523254D01*
X26844Y523272D01*
X26891Y523280D01*
X26948Y523314D01*
X27008Y523339D01*
X27043Y523370D01*
X27084Y523395D01*
X27126Y523446D01*
X27174Y523490D01*
X27196Y523532D01*
X27225Y523569D01*
X27246Y523631D01*
X27277Y523690D01*
X27285Y523744D01*
X27297Y523781D01*
X27296Y523821D01*
X27304Y523875D01*
X27304Y527685D01*
X27293Y527750D01*
X27291Y527816D01*
X27273Y527859D01*
X27265Y527906D01*
X27231Y527963D01*
X27206Y528023D01*
X27175Y528058D01*
X27150Y528099D01*
X27099Y528141D01*
X27055Y528189D01*
X27013Y528211D01*
X26976Y528240D01*
X26914Y528261D01*
X26855Y528292D01*
X26801Y528300D01*
X26764Y528312D01*
X26724Y528311D01*
X26670Y528319D01*
X24130Y528319D01*
X24065Y528308D01*
X23999Y528306D01*
X23956Y528288D01*
X23909Y528280D01*
X23852Y528246D01*
X23792Y528221D01*
X23757Y528190D01*
X23716Y528165D01*
X23675Y528114D01*
X23626Y528070D01*
X23604Y528028D01*
X23575Y527991D01*
X23554Y527929D01*
X23523Y527870D01*
X23515Y527816D01*
X23503Y527779D01*
X23503Y527775D01*
X23503Y527774D01*
X23504Y527739D01*
X23496Y527685D01*
X23496Y523875D01*
X23507Y523810D01*
X23509Y523744D01*
X23527Y523701D01*
X23535Y523654D01*
X23569Y523597D01*
X23594Y523537D01*
X23625Y523502D01*
X23650Y523461D01*
X23701Y523420D01*
X23745Y523371D01*
X23787Y523349D01*
X23824Y523320D01*
X23886Y523299D01*
X23945Y523268D01*
X23999Y523260D01*
X24036Y523248D01*
X24076Y523249D01*
X24130Y523241D01*
X26670Y523241D01*
X26735Y523252D01*
G37*
G36*
X727775Y523252D02*
X727775Y523252D01*
X727841Y523254D01*
X727884Y523272D01*
X727931Y523280D01*
X727988Y523314D01*
X728048Y523339D01*
X728083Y523370D01*
X728124Y523395D01*
X728166Y523446D01*
X728214Y523490D01*
X728236Y523532D01*
X728265Y523569D01*
X728286Y523631D01*
X728317Y523690D01*
X728325Y523744D01*
X728337Y523781D01*
X728336Y523821D01*
X728344Y523875D01*
X728344Y527685D01*
X728333Y527750D01*
X728331Y527816D01*
X728313Y527859D01*
X728305Y527906D01*
X728271Y527963D01*
X728246Y528023D01*
X728215Y528058D01*
X728190Y528099D01*
X728139Y528141D01*
X728095Y528189D01*
X728053Y528211D01*
X728016Y528240D01*
X727954Y528261D01*
X727895Y528292D01*
X727841Y528300D01*
X727804Y528312D01*
X727764Y528311D01*
X727710Y528319D01*
X725170Y528319D01*
X725105Y528308D01*
X725039Y528306D01*
X724996Y528288D01*
X724949Y528280D01*
X724892Y528246D01*
X724832Y528221D01*
X724797Y528190D01*
X724756Y528165D01*
X724715Y528114D01*
X724666Y528070D01*
X724644Y528028D01*
X724615Y527991D01*
X724594Y527929D01*
X724563Y527870D01*
X724555Y527816D01*
X724543Y527779D01*
X724543Y527775D01*
X724543Y527774D01*
X724544Y527739D01*
X724536Y527685D01*
X724536Y523875D01*
X724547Y523810D01*
X724549Y523744D01*
X724567Y523701D01*
X724575Y523654D01*
X724609Y523597D01*
X724634Y523537D01*
X724665Y523502D01*
X724690Y523461D01*
X724741Y523420D01*
X724785Y523371D01*
X724827Y523349D01*
X724864Y523320D01*
X724926Y523299D01*
X724985Y523268D01*
X725039Y523260D01*
X725076Y523248D01*
X725116Y523249D01*
X725170Y523241D01*
X727710Y523241D01*
X727775Y523252D01*
G37*
G36*
X204535Y523252D02*
X204535Y523252D01*
X204601Y523254D01*
X204644Y523272D01*
X204691Y523280D01*
X204748Y523314D01*
X204808Y523339D01*
X204843Y523370D01*
X204884Y523395D01*
X204926Y523446D01*
X204974Y523490D01*
X204996Y523532D01*
X205025Y523569D01*
X205046Y523631D01*
X205077Y523690D01*
X205085Y523744D01*
X205097Y523781D01*
X205096Y523821D01*
X205104Y523875D01*
X205104Y527685D01*
X205093Y527750D01*
X205091Y527816D01*
X205073Y527859D01*
X205065Y527906D01*
X205031Y527963D01*
X205006Y528023D01*
X204975Y528058D01*
X204950Y528099D01*
X204899Y528141D01*
X204855Y528189D01*
X204813Y528211D01*
X204776Y528240D01*
X204714Y528261D01*
X204655Y528292D01*
X204601Y528300D01*
X204564Y528312D01*
X204524Y528311D01*
X204470Y528319D01*
X201930Y528319D01*
X201865Y528308D01*
X201799Y528306D01*
X201756Y528288D01*
X201709Y528280D01*
X201652Y528246D01*
X201592Y528221D01*
X201557Y528190D01*
X201516Y528165D01*
X201475Y528114D01*
X201426Y528070D01*
X201404Y528028D01*
X201375Y527991D01*
X201354Y527929D01*
X201323Y527870D01*
X201315Y527816D01*
X201303Y527779D01*
X201303Y527775D01*
X201303Y527774D01*
X201304Y527739D01*
X201296Y527685D01*
X201296Y523875D01*
X201307Y523810D01*
X201309Y523744D01*
X201327Y523701D01*
X201335Y523654D01*
X201369Y523597D01*
X201394Y523537D01*
X201425Y523502D01*
X201450Y523461D01*
X201501Y523420D01*
X201545Y523371D01*
X201587Y523349D01*
X201624Y523320D01*
X201686Y523299D01*
X201745Y523268D01*
X201799Y523260D01*
X201836Y523248D01*
X201876Y523249D01*
X201930Y523241D01*
X204470Y523241D01*
X204535Y523252D01*
G37*
G36*
X260415Y523252D02*
X260415Y523252D01*
X260481Y523254D01*
X260524Y523272D01*
X260571Y523280D01*
X260628Y523314D01*
X260688Y523339D01*
X260723Y523370D01*
X260764Y523395D01*
X260806Y523446D01*
X260854Y523490D01*
X260876Y523532D01*
X260905Y523569D01*
X260926Y523631D01*
X260957Y523690D01*
X260965Y523744D01*
X260977Y523781D01*
X260976Y523821D01*
X260984Y523875D01*
X260984Y527685D01*
X260973Y527750D01*
X260971Y527816D01*
X260953Y527859D01*
X260945Y527906D01*
X260911Y527963D01*
X260886Y528023D01*
X260855Y528058D01*
X260830Y528099D01*
X260779Y528141D01*
X260735Y528189D01*
X260693Y528211D01*
X260656Y528240D01*
X260594Y528261D01*
X260535Y528292D01*
X260481Y528300D01*
X260444Y528312D01*
X260404Y528311D01*
X260350Y528319D01*
X257810Y528319D01*
X257745Y528308D01*
X257679Y528306D01*
X257636Y528288D01*
X257589Y528280D01*
X257532Y528246D01*
X257472Y528221D01*
X257437Y528190D01*
X257396Y528165D01*
X257355Y528114D01*
X257306Y528070D01*
X257284Y528028D01*
X257255Y527991D01*
X257234Y527929D01*
X257203Y527870D01*
X257195Y527816D01*
X257183Y527779D01*
X257183Y527775D01*
X257183Y527774D01*
X257184Y527739D01*
X257176Y527685D01*
X257176Y523875D01*
X257187Y523810D01*
X257189Y523744D01*
X257207Y523701D01*
X257215Y523654D01*
X257249Y523597D01*
X257274Y523537D01*
X257305Y523502D01*
X257330Y523461D01*
X257381Y523420D01*
X257425Y523371D01*
X257467Y523349D01*
X257504Y523320D01*
X257566Y523299D01*
X257625Y523268D01*
X257679Y523260D01*
X257716Y523248D01*
X257756Y523249D01*
X257810Y523241D01*
X260350Y523241D01*
X260415Y523252D01*
G37*
G36*
X905575Y523252D02*
X905575Y523252D01*
X905641Y523254D01*
X905684Y523272D01*
X905731Y523280D01*
X905788Y523314D01*
X905848Y523339D01*
X905883Y523370D01*
X905924Y523395D01*
X905966Y523446D01*
X906014Y523490D01*
X906036Y523532D01*
X906065Y523569D01*
X906086Y523631D01*
X906117Y523690D01*
X906125Y523744D01*
X906137Y523781D01*
X906136Y523821D01*
X906144Y523875D01*
X906144Y527685D01*
X906133Y527750D01*
X906131Y527816D01*
X906113Y527859D01*
X906105Y527906D01*
X906071Y527963D01*
X906046Y528023D01*
X906015Y528058D01*
X905990Y528099D01*
X905939Y528141D01*
X905895Y528189D01*
X905853Y528211D01*
X905816Y528240D01*
X905754Y528261D01*
X905695Y528292D01*
X905641Y528300D01*
X905604Y528312D01*
X905564Y528311D01*
X905510Y528319D01*
X902970Y528319D01*
X902905Y528308D01*
X902839Y528306D01*
X902796Y528288D01*
X902749Y528280D01*
X902692Y528246D01*
X902632Y528221D01*
X902597Y528190D01*
X902556Y528165D01*
X902515Y528114D01*
X902466Y528070D01*
X902444Y528028D01*
X902415Y527991D01*
X902394Y527929D01*
X902363Y527870D01*
X902355Y527816D01*
X902343Y527779D01*
X902343Y527775D01*
X902343Y527774D01*
X902344Y527739D01*
X902336Y527685D01*
X902336Y523875D01*
X902347Y523810D01*
X902349Y523744D01*
X902367Y523701D01*
X902375Y523654D01*
X902409Y523597D01*
X902434Y523537D01*
X902465Y523502D01*
X902490Y523461D01*
X902541Y523420D01*
X902585Y523371D01*
X902627Y523349D01*
X902664Y523320D01*
X902726Y523299D01*
X902785Y523268D01*
X902839Y523260D01*
X902876Y523248D01*
X902916Y523249D01*
X902970Y523241D01*
X905510Y523241D01*
X905575Y523252D01*
G37*
G36*
X961455Y523252D02*
X961455Y523252D01*
X961521Y523254D01*
X961564Y523272D01*
X961611Y523280D01*
X961668Y523314D01*
X961728Y523339D01*
X961763Y523370D01*
X961804Y523395D01*
X961846Y523446D01*
X961894Y523490D01*
X961916Y523532D01*
X961945Y523569D01*
X961966Y523631D01*
X961997Y523690D01*
X962005Y523744D01*
X962017Y523781D01*
X962016Y523821D01*
X962024Y523875D01*
X962024Y527685D01*
X962013Y527750D01*
X962011Y527816D01*
X961993Y527859D01*
X961985Y527906D01*
X961951Y527963D01*
X961926Y528023D01*
X961895Y528058D01*
X961870Y528099D01*
X961819Y528141D01*
X961775Y528189D01*
X961733Y528211D01*
X961696Y528240D01*
X961634Y528261D01*
X961575Y528292D01*
X961521Y528300D01*
X961484Y528312D01*
X961444Y528311D01*
X961390Y528319D01*
X958850Y528319D01*
X958785Y528308D01*
X958719Y528306D01*
X958676Y528288D01*
X958629Y528280D01*
X958572Y528246D01*
X958512Y528221D01*
X958477Y528190D01*
X958436Y528165D01*
X958395Y528114D01*
X958346Y528070D01*
X958324Y528028D01*
X958295Y527991D01*
X958274Y527929D01*
X958243Y527870D01*
X958235Y527816D01*
X958223Y527779D01*
X958223Y527775D01*
X958223Y527774D01*
X958224Y527739D01*
X958216Y527685D01*
X958216Y523875D01*
X958227Y523810D01*
X958229Y523744D01*
X958247Y523701D01*
X958255Y523654D01*
X958289Y523597D01*
X958314Y523537D01*
X958345Y523502D01*
X958370Y523461D01*
X958421Y523420D01*
X958465Y523371D01*
X958507Y523349D01*
X958544Y523320D01*
X958606Y523299D01*
X958665Y523268D01*
X958719Y523260D01*
X958756Y523248D01*
X958796Y523249D01*
X958850Y523241D01*
X961390Y523241D01*
X961455Y523252D01*
G37*
G36*
X438215Y523252D02*
X438215Y523252D01*
X438281Y523254D01*
X438324Y523272D01*
X438371Y523280D01*
X438428Y523314D01*
X438488Y523339D01*
X438523Y523370D01*
X438564Y523395D01*
X438606Y523446D01*
X438654Y523490D01*
X438676Y523532D01*
X438705Y523569D01*
X438726Y523631D01*
X438757Y523690D01*
X438765Y523744D01*
X438777Y523781D01*
X438776Y523821D01*
X438784Y523875D01*
X438784Y527685D01*
X438773Y527750D01*
X438771Y527816D01*
X438753Y527859D01*
X438745Y527906D01*
X438711Y527963D01*
X438686Y528023D01*
X438655Y528058D01*
X438630Y528099D01*
X438579Y528141D01*
X438535Y528189D01*
X438493Y528211D01*
X438456Y528240D01*
X438394Y528261D01*
X438335Y528292D01*
X438281Y528300D01*
X438244Y528312D01*
X438204Y528311D01*
X438150Y528319D01*
X435610Y528319D01*
X435545Y528308D01*
X435479Y528306D01*
X435436Y528288D01*
X435389Y528280D01*
X435332Y528246D01*
X435272Y528221D01*
X435237Y528190D01*
X435196Y528165D01*
X435155Y528114D01*
X435106Y528070D01*
X435084Y528028D01*
X435055Y527991D01*
X435034Y527929D01*
X435003Y527870D01*
X434995Y527816D01*
X434983Y527779D01*
X434983Y527775D01*
X434983Y527774D01*
X434984Y527739D01*
X434976Y527685D01*
X434976Y523875D01*
X434987Y523810D01*
X434989Y523744D01*
X435007Y523701D01*
X435015Y523654D01*
X435049Y523597D01*
X435074Y523537D01*
X435105Y523502D01*
X435130Y523461D01*
X435181Y523420D01*
X435225Y523371D01*
X435267Y523349D01*
X435304Y523320D01*
X435366Y523299D01*
X435425Y523268D01*
X435479Y523260D01*
X435516Y523248D01*
X435556Y523249D01*
X435610Y523241D01*
X438150Y523241D01*
X438215Y523252D01*
G37*
G36*
X1139255Y523252D02*
X1139255Y523252D01*
X1139321Y523254D01*
X1139364Y523272D01*
X1139411Y523280D01*
X1139468Y523314D01*
X1139528Y523339D01*
X1139563Y523370D01*
X1139604Y523395D01*
X1139646Y523446D01*
X1139694Y523490D01*
X1139716Y523532D01*
X1139745Y523569D01*
X1139766Y523631D01*
X1139797Y523690D01*
X1139805Y523744D01*
X1139817Y523781D01*
X1139816Y523821D01*
X1139824Y523875D01*
X1139824Y527685D01*
X1139813Y527750D01*
X1139811Y527816D01*
X1139793Y527859D01*
X1139785Y527906D01*
X1139751Y527963D01*
X1139726Y528023D01*
X1139695Y528058D01*
X1139670Y528099D01*
X1139619Y528141D01*
X1139575Y528189D01*
X1139533Y528211D01*
X1139496Y528240D01*
X1139434Y528261D01*
X1139375Y528292D01*
X1139321Y528300D01*
X1139284Y528312D01*
X1139244Y528311D01*
X1139190Y528319D01*
X1136650Y528319D01*
X1136585Y528308D01*
X1136519Y528306D01*
X1136476Y528288D01*
X1136429Y528280D01*
X1136372Y528246D01*
X1136312Y528221D01*
X1136277Y528190D01*
X1136236Y528165D01*
X1136195Y528114D01*
X1136146Y528070D01*
X1136124Y528028D01*
X1136095Y527991D01*
X1136074Y527929D01*
X1136043Y527870D01*
X1136035Y527816D01*
X1136023Y527779D01*
X1136023Y527775D01*
X1136023Y527774D01*
X1136024Y527739D01*
X1136016Y527685D01*
X1136016Y523875D01*
X1136027Y523810D01*
X1136029Y523744D01*
X1136047Y523701D01*
X1136055Y523654D01*
X1136089Y523597D01*
X1136114Y523537D01*
X1136145Y523502D01*
X1136170Y523461D01*
X1136221Y523420D01*
X1136265Y523371D01*
X1136307Y523349D01*
X1136344Y523320D01*
X1136406Y523299D01*
X1136465Y523268D01*
X1136519Y523260D01*
X1136556Y523248D01*
X1136596Y523249D01*
X1136650Y523241D01*
X1139190Y523241D01*
X1139255Y523252D01*
G37*
G36*
X494095Y111772D02*
X494095Y111772D01*
X494161Y111774D01*
X494204Y111792D01*
X494251Y111800D01*
X494308Y111834D01*
X494368Y111859D01*
X494403Y111890D01*
X494444Y111915D01*
X494486Y111966D01*
X494534Y112010D01*
X494556Y112052D01*
X494585Y112089D01*
X494606Y112151D01*
X494637Y112210D01*
X494645Y112264D01*
X494657Y112301D01*
X494656Y112341D01*
X494664Y112395D01*
X494664Y116205D01*
X494653Y116270D01*
X494651Y116336D01*
X494633Y116379D01*
X494625Y116426D01*
X494591Y116483D01*
X494566Y116543D01*
X494535Y116578D01*
X494510Y116619D01*
X494459Y116661D01*
X494415Y116709D01*
X494373Y116731D01*
X494336Y116760D01*
X494274Y116781D01*
X494215Y116812D01*
X494161Y116820D01*
X494124Y116832D01*
X494084Y116831D01*
X494030Y116839D01*
X491490Y116839D01*
X491425Y116828D01*
X491359Y116826D01*
X491316Y116808D01*
X491269Y116800D01*
X491212Y116766D01*
X491152Y116741D01*
X491117Y116710D01*
X491076Y116685D01*
X491035Y116634D01*
X490986Y116590D01*
X490964Y116548D01*
X490935Y116511D01*
X490914Y116449D01*
X490883Y116390D01*
X490875Y116336D01*
X490863Y116299D01*
X490863Y116295D01*
X490863Y116294D01*
X490864Y116259D01*
X490856Y116205D01*
X490856Y112395D01*
X490867Y112330D01*
X490869Y112264D01*
X490887Y112221D01*
X490895Y112174D01*
X490929Y112117D01*
X490954Y112057D01*
X490985Y112022D01*
X491010Y111981D01*
X491061Y111940D01*
X491105Y111891D01*
X491147Y111869D01*
X491184Y111840D01*
X491246Y111819D01*
X491305Y111788D01*
X491359Y111780D01*
X491396Y111768D01*
X491436Y111769D01*
X491490Y111761D01*
X494030Y111761D01*
X494095Y111772D01*
G37*
G36*
X905575Y111772D02*
X905575Y111772D01*
X905641Y111774D01*
X905684Y111792D01*
X905731Y111800D01*
X905788Y111834D01*
X905848Y111859D01*
X905883Y111890D01*
X905924Y111915D01*
X905966Y111966D01*
X906014Y112010D01*
X906036Y112052D01*
X906065Y112089D01*
X906086Y112151D01*
X906117Y112210D01*
X906125Y112264D01*
X906137Y112301D01*
X906136Y112341D01*
X906144Y112395D01*
X906144Y116205D01*
X906133Y116270D01*
X906131Y116336D01*
X906113Y116379D01*
X906105Y116426D01*
X906071Y116483D01*
X906046Y116543D01*
X906015Y116578D01*
X905990Y116619D01*
X905939Y116661D01*
X905895Y116709D01*
X905853Y116731D01*
X905816Y116760D01*
X905754Y116781D01*
X905695Y116812D01*
X905641Y116820D01*
X905604Y116832D01*
X905564Y116831D01*
X905510Y116839D01*
X902970Y116839D01*
X902905Y116828D01*
X902839Y116826D01*
X902796Y116808D01*
X902749Y116800D01*
X902692Y116766D01*
X902632Y116741D01*
X902597Y116710D01*
X902556Y116685D01*
X902515Y116634D01*
X902466Y116590D01*
X902444Y116548D01*
X902415Y116511D01*
X902394Y116449D01*
X902363Y116390D01*
X902355Y116336D01*
X902343Y116299D01*
X902343Y116295D01*
X902343Y116294D01*
X902344Y116259D01*
X902336Y116205D01*
X902336Y112395D01*
X902347Y112330D01*
X902349Y112264D01*
X902367Y112221D01*
X902375Y112174D01*
X902409Y112117D01*
X902434Y112057D01*
X902465Y112022D01*
X902490Y111981D01*
X902541Y111940D01*
X902585Y111891D01*
X902627Y111869D01*
X902664Y111840D01*
X902726Y111819D01*
X902785Y111788D01*
X902839Y111780D01*
X902876Y111768D01*
X902916Y111769D01*
X902970Y111761D01*
X905510Y111761D01*
X905575Y111772D01*
G37*
G36*
X671895Y111772D02*
X671895Y111772D01*
X671961Y111774D01*
X672004Y111792D01*
X672051Y111800D01*
X672108Y111834D01*
X672168Y111859D01*
X672203Y111890D01*
X672244Y111915D01*
X672286Y111966D01*
X672334Y112010D01*
X672356Y112052D01*
X672385Y112089D01*
X672406Y112151D01*
X672437Y112210D01*
X672445Y112264D01*
X672457Y112301D01*
X672456Y112341D01*
X672464Y112395D01*
X672464Y116205D01*
X672453Y116270D01*
X672451Y116336D01*
X672433Y116379D01*
X672425Y116426D01*
X672391Y116483D01*
X672366Y116543D01*
X672335Y116578D01*
X672310Y116619D01*
X672259Y116661D01*
X672215Y116709D01*
X672173Y116731D01*
X672136Y116760D01*
X672074Y116781D01*
X672015Y116812D01*
X671961Y116820D01*
X671924Y116832D01*
X671884Y116831D01*
X671830Y116839D01*
X669290Y116839D01*
X669225Y116828D01*
X669159Y116826D01*
X669116Y116808D01*
X669069Y116800D01*
X669012Y116766D01*
X668952Y116741D01*
X668917Y116710D01*
X668876Y116685D01*
X668835Y116634D01*
X668786Y116590D01*
X668764Y116548D01*
X668735Y116511D01*
X668714Y116449D01*
X668683Y116390D01*
X668675Y116336D01*
X668663Y116299D01*
X668663Y116295D01*
X668663Y116294D01*
X668664Y116259D01*
X668656Y116205D01*
X668656Y112395D01*
X668667Y112330D01*
X668669Y112264D01*
X668687Y112221D01*
X668695Y112174D01*
X668729Y112117D01*
X668754Y112057D01*
X668785Y112022D01*
X668810Y111981D01*
X668861Y111940D01*
X668905Y111891D01*
X668947Y111869D01*
X668984Y111840D01*
X669046Y111819D01*
X669105Y111788D01*
X669159Y111780D01*
X669196Y111768D01*
X669236Y111769D01*
X669290Y111761D01*
X671830Y111761D01*
X671895Y111772D01*
G37*
G36*
X1139255Y111772D02*
X1139255Y111772D01*
X1139321Y111774D01*
X1139364Y111792D01*
X1139411Y111800D01*
X1139468Y111834D01*
X1139528Y111859D01*
X1139563Y111890D01*
X1139604Y111915D01*
X1139646Y111966D01*
X1139694Y112010D01*
X1139716Y112052D01*
X1139745Y112089D01*
X1139766Y112151D01*
X1139797Y112210D01*
X1139805Y112264D01*
X1139817Y112301D01*
X1139816Y112341D01*
X1139824Y112395D01*
X1139824Y116205D01*
X1139813Y116270D01*
X1139811Y116336D01*
X1139793Y116379D01*
X1139785Y116426D01*
X1139751Y116483D01*
X1139726Y116543D01*
X1139695Y116578D01*
X1139670Y116619D01*
X1139619Y116661D01*
X1139575Y116709D01*
X1139533Y116731D01*
X1139496Y116760D01*
X1139434Y116781D01*
X1139375Y116812D01*
X1139321Y116820D01*
X1139284Y116832D01*
X1139244Y116831D01*
X1139190Y116839D01*
X1136650Y116839D01*
X1136585Y116828D01*
X1136519Y116826D01*
X1136476Y116808D01*
X1136429Y116800D01*
X1136372Y116766D01*
X1136312Y116741D01*
X1136277Y116710D01*
X1136236Y116685D01*
X1136195Y116634D01*
X1136146Y116590D01*
X1136124Y116548D01*
X1136095Y116511D01*
X1136074Y116449D01*
X1136043Y116390D01*
X1136035Y116336D01*
X1136023Y116299D01*
X1136023Y116295D01*
X1136023Y116294D01*
X1136024Y116259D01*
X1136016Y116205D01*
X1136016Y112395D01*
X1136027Y112330D01*
X1136029Y112264D01*
X1136047Y112221D01*
X1136055Y112174D01*
X1136089Y112117D01*
X1136114Y112057D01*
X1136145Y112022D01*
X1136170Y111981D01*
X1136221Y111940D01*
X1136265Y111891D01*
X1136307Y111869D01*
X1136344Y111840D01*
X1136406Y111819D01*
X1136465Y111788D01*
X1136519Y111780D01*
X1136556Y111768D01*
X1136596Y111769D01*
X1136650Y111761D01*
X1139190Y111761D01*
X1139255Y111772D01*
G37*
G36*
X438215Y111772D02*
X438215Y111772D01*
X438281Y111774D01*
X438324Y111792D01*
X438371Y111800D01*
X438428Y111834D01*
X438488Y111859D01*
X438523Y111890D01*
X438564Y111915D01*
X438606Y111966D01*
X438654Y112010D01*
X438676Y112052D01*
X438705Y112089D01*
X438726Y112151D01*
X438757Y112210D01*
X438765Y112264D01*
X438777Y112301D01*
X438776Y112341D01*
X438784Y112395D01*
X438784Y116205D01*
X438773Y116270D01*
X438771Y116336D01*
X438753Y116379D01*
X438745Y116426D01*
X438711Y116483D01*
X438686Y116543D01*
X438655Y116578D01*
X438630Y116619D01*
X438579Y116661D01*
X438535Y116709D01*
X438493Y116731D01*
X438456Y116760D01*
X438394Y116781D01*
X438335Y116812D01*
X438281Y116820D01*
X438244Y116832D01*
X438204Y116831D01*
X438150Y116839D01*
X435610Y116839D01*
X435545Y116828D01*
X435479Y116826D01*
X435436Y116808D01*
X435389Y116800D01*
X435332Y116766D01*
X435272Y116741D01*
X435237Y116710D01*
X435196Y116685D01*
X435155Y116634D01*
X435106Y116590D01*
X435084Y116548D01*
X435055Y116511D01*
X435034Y116449D01*
X435003Y116390D01*
X434995Y116336D01*
X434983Y116299D01*
X434983Y116295D01*
X434983Y116294D01*
X434984Y116259D01*
X434976Y116205D01*
X434976Y112395D01*
X434987Y112330D01*
X434989Y112264D01*
X435007Y112221D01*
X435015Y112174D01*
X435049Y112117D01*
X435074Y112057D01*
X435105Y112022D01*
X435130Y111981D01*
X435181Y111940D01*
X435225Y111891D01*
X435267Y111869D01*
X435304Y111840D01*
X435366Y111819D01*
X435425Y111788D01*
X435479Y111780D01*
X435516Y111768D01*
X435556Y111769D01*
X435610Y111761D01*
X438150Y111761D01*
X438215Y111772D01*
G37*
G36*
X260415Y111772D02*
X260415Y111772D01*
X260481Y111774D01*
X260524Y111792D01*
X260571Y111800D01*
X260628Y111834D01*
X260688Y111859D01*
X260723Y111890D01*
X260764Y111915D01*
X260806Y111966D01*
X260854Y112010D01*
X260876Y112052D01*
X260905Y112089D01*
X260926Y112151D01*
X260957Y112210D01*
X260965Y112264D01*
X260977Y112301D01*
X260976Y112341D01*
X260984Y112395D01*
X260984Y116205D01*
X260973Y116270D01*
X260971Y116336D01*
X260953Y116379D01*
X260945Y116426D01*
X260911Y116483D01*
X260886Y116543D01*
X260855Y116578D01*
X260830Y116619D01*
X260779Y116661D01*
X260735Y116709D01*
X260693Y116731D01*
X260656Y116760D01*
X260594Y116781D01*
X260535Y116812D01*
X260481Y116820D01*
X260444Y116832D01*
X260404Y116831D01*
X260350Y116839D01*
X257810Y116839D01*
X257745Y116828D01*
X257679Y116826D01*
X257636Y116808D01*
X257589Y116800D01*
X257532Y116766D01*
X257472Y116741D01*
X257437Y116710D01*
X257396Y116685D01*
X257355Y116634D01*
X257306Y116590D01*
X257284Y116548D01*
X257255Y116511D01*
X257234Y116449D01*
X257203Y116390D01*
X257195Y116336D01*
X257183Y116299D01*
X257183Y116295D01*
X257183Y116294D01*
X257184Y116259D01*
X257176Y116205D01*
X257176Y112395D01*
X257187Y112330D01*
X257189Y112264D01*
X257207Y112221D01*
X257215Y112174D01*
X257249Y112117D01*
X257274Y112057D01*
X257305Y112022D01*
X257330Y111981D01*
X257381Y111940D01*
X257425Y111891D01*
X257467Y111869D01*
X257504Y111840D01*
X257566Y111819D01*
X257625Y111788D01*
X257679Y111780D01*
X257716Y111768D01*
X257756Y111769D01*
X257810Y111761D01*
X260350Y111761D01*
X260415Y111772D01*
G37*
G36*
X961455Y111772D02*
X961455Y111772D01*
X961521Y111774D01*
X961564Y111792D01*
X961611Y111800D01*
X961668Y111834D01*
X961728Y111859D01*
X961763Y111890D01*
X961804Y111915D01*
X961846Y111966D01*
X961894Y112010D01*
X961916Y112052D01*
X961945Y112089D01*
X961966Y112151D01*
X961997Y112210D01*
X962005Y112264D01*
X962017Y112301D01*
X962016Y112341D01*
X962024Y112395D01*
X962024Y116205D01*
X962013Y116270D01*
X962011Y116336D01*
X961993Y116379D01*
X961985Y116426D01*
X961951Y116483D01*
X961926Y116543D01*
X961895Y116578D01*
X961870Y116619D01*
X961819Y116661D01*
X961775Y116709D01*
X961733Y116731D01*
X961696Y116760D01*
X961634Y116781D01*
X961575Y116812D01*
X961521Y116820D01*
X961484Y116832D01*
X961444Y116831D01*
X961390Y116839D01*
X958850Y116839D01*
X958785Y116828D01*
X958719Y116826D01*
X958676Y116808D01*
X958629Y116800D01*
X958572Y116766D01*
X958512Y116741D01*
X958477Y116710D01*
X958436Y116685D01*
X958395Y116634D01*
X958346Y116590D01*
X958324Y116548D01*
X958295Y116511D01*
X958274Y116449D01*
X958243Y116390D01*
X958235Y116336D01*
X958223Y116299D01*
X958223Y116295D01*
X958223Y116294D01*
X958224Y116259D01*
X958216Y116205D01*
X958216Y112395D01*
X958227Y112330D01*
X958229Y112264D01*
X958247Y112221D01*
X958255Y112174D01*
X958289Y112117D01*
X958314Y112057D01*
X958345Y112022D01*
X958370Y111981D01*
X958421Y111940D01*
X958465Y111891D01*
X958507Y111869D01*
X958544Y111840D01*
X958606Y111819D01*
X958665Y111788D01*
X958719Y111780D01*
X958756Y111768D01*
X958796Y111769D01*
X958850Y111761D01*
X961390Y111761D01*
X961455Y111772D01*
G37*
G36*
X727775Y111772D02*
X727775Y111772D01*
X727841Y111774D01*
X727884Y111792D01*
X727931Y111800D01*
X727988Y111834D01*
X728048Y111859D01*
X728083Y111890D01*
X728124Y111915D01*
X728166Y111966D01*
X728214Y112010D01*
X728236Y112052D01*
X728265Y112089D01*
X728286Y112151D01*
X728317Y112210D01*
X728325Y112264D01*
X728337Y112301D01*
X728336Y112341D01*
X728344Y112395D01*
X728344Y116205D01*
X728333Y116270D01*
X728331Y116336D01*
X728313Y116379D01*
X728305Y116426D01*
X728271Y116483D01*
X728246Y116543D01*
X728215Y116578D01*
X728190Y116619D01*
X728139Y116661D01*
X728095Y116709D01*
X728053Y116731D01*
X728016Y116760D01*
X727954Y116781D01*
X727895Y116812D01*
X727841Y116820D01*
X727804Y116832D01*
X727764Y116831D01*
X727710Y116839D01*
X725170Y116839D01*
X725105Y116828D01*
X725039Y116826D01*
X724996Y116808D01*
X724949Y116800D01*
X724892Y116766D01*
X724832Y116741D01*
X724797Y116710D01*
X724756Y116685D01*
X724715Y116634D01*
X724666Y116590D01*
X724644Y116548D01*
X724615Y116511D01*
X724594Y116449D01*
X724563Y116390D01*
X724555Y116336D01*
X724543Y116299D01*
X724543Y116295D01*
X724543Y116294D01*
X724544Y116259D01*
X724536Y116205D01*
X724536Y112395D01*
X724547Y112330D01*
X724549Y112264D01*
X724567Y112221D01*
X724575Y112174D01*
X724609Y112117D01*
X724634Y112057D01*
X724665Y112022D01*
X724690Y111981D01*
X724741Y111940D01*
X724785Y111891D01*
X724827Y111869D01*
X724864Y111840D01*
X724926Y111819D01*
X724985Y111788D01*
X725039Y111780D01*
X725076Y111768D01*
X725116Y111769D01*
X725170Y111761D01*
X727710Y111761D01*
X727775Y111772D01*
G37*
G36*
X204535Y111772D02*
X204535Y111772D01*
X204601Y111774D01*
X204644Y111792D01*
X204691Y111800D01*
X204748Y111834D01*
X204808Y111859D01*
X204843Y111890D01*
X204884Y111915D01*
X204926Y111966D01*
X204974Y112010D01*
X204996Y112052D01*
X205025Y112089D01*
X205046Y112151D01*
X205077Y112210D01*
X205085Y112264D01*
X205097Y112301D01*
X205096Y112341D01*
X205104Y112395D01*
X205104Y116205D01*
X205093Y116270D01*
X205091Y116336D01*
X205073Y116379D01*
X205065Y116426D01*
X205031Y116483D01*
X205006Y116543D01*
X204975Y116578D01*
X204950Y116619D01*
X204899Y116661D01*
X204855Y116709D01*
X204813Y116731D01*
X204776Y116760D01*
X204714Y116781D01*
X204655Y116812D01*
X204601Y116820D01*
X204564Y116832D01*
X204524Y116831D01*
X204470Y116839D01*
X201930Y116839D01*
X201865Y116828D01*
X201799Y116826D01*
X201756Y116808D01*
X201709Y116800D01*
X201652Y116766D01*
X201592Y116741D01*
X201557Y116710D01*
X201516Y116685D01*
X201475Y116634D01*
X201426Y116590D01*
X201404Y116548D01*
X201375Y116511D01*
X201354Y116449D01*
X201323Y116390D01*
X201315Y116336D01*
X201303Y116299D01*
X201303Y116295D01*
X201303Y116294D01*
X201304Y116259D01*
X201296Y116205D01*
X201296Y112395D01*
X201307Y112330D01*
X201309Y112264D01*
X201327Y112221D01*
X201335Y112174D01*
X201369Y112117D01*
X201394Y112057D01*
X201425Y112022D01*
X201450Y111981D01*
X201501Y111940D01*
X201545Y111891D01*
X201587Y111869D01*
X201624Y111840D01*
X201686Y111819D01*
X201745Y111788D01*
X201799Y111780D01*
X201836Y111768D01*
X201876Y111769D01*
X201930Y111761D01*
X204470Y111761D01*
X204535Y111772D01*
G37*
G36*
X26735Y111772D02*
X26735Y111772D01*
X26801Y111774D01*
X26844Y111792D01*
X26891Y111800D01*
X26948Y111834D01*
X27008Y111859D01*
X27043Y111890D01*
X27084Y111915D01*
X27126Y111966D01*
X27174Y112010D01*
X27196Y112052D01*
X27225Y112089D01*
X27246Y112151D01*
X27277Y112210D01*
X27285Y112264D01*
X27297Y112301D01*
X27296Y112341D01*
X27304Y112395D01*
X27304Y116205D01*
X27293Y116270D01*
X27291Y116336D01*
X27273Y116379D01*
X27265Y116426D01*
X27231Y116483D01*
X27206Y116543D01*
X27175Y116578D01*
X27150Y116619D01*
X27099Y116661D01*
X27055Y116709D01*
X27013Y116731D01*
X26976Y116760D01*
X26914Y116781D01*
X26855Y116812D01*
X26801Y116820D01*
X26764Y116832D01*
X26724Y116831D01*
X26670Y116839D01*
X24130Y116839D01*
X24065Y116828D01*
X23999Y116826D01*
X23956Y116808D01*
X23909Y116800D01*
X23852Y116766D01*
X23792Y116741D01*
X23757Y116710D01*
X23716Y116685D01*
X23675Y116634D01*
X23626Y116590D01*
X23604Y116548D01*
X23575Y116511D01*
X23554Y116449D01*
X23523Y116390D01*
X23515Y116336D01*
X23503Y116299D01*
X23503Y116295D01*
X23503Y116294D01*
X23504Y116259D01*
X23496Y116205D01*
X23496Y112395D01*
X23507Y112330D01*
X23509Y112264D01*
X23527Y112221D01*
X23535Y112174D01*
X23569Y112117D01*
X23594Y112057D01*
X23625Y112022D01*
X23650Y111981D01*
X23701Y111940D01*
X23745Y111891D01*
X23787Y111869D01*
X23824Y111840D01*
X23886Y111819D01*
X23945Y111788D01*
X23999Y111780D01*
X24036Y111768D01*
X24076Y111769D01*
X24130Y111761D01*
X26670Y111761D01*
X26735Y111772D01*
G37*
D10*
X25400Y381000D03*
X203200Y381000D03*
D11*
X7620Y398780D03*
X220980Y7620D03*
D10*
X25400Y25400D03*
X203200Y25400D03*
D12*
X25400Y109093D03*
X25400Y119507D03*
D13*
X88900Y12700D03*
X114300Y12700D03*
X139700Y12700D03*
D12*
X203200Y109093D03*
X203200Y119507D03*
D10*
X259080Y381000D03*
X436880Y381000D03*
D11*
X241300Y398780D03*
X454660Y7620D03*
D10*
X259080Y25400D03*
X436880Y25400D03*
D12*
X259080Y109093D03*
X259080Y119507D03*
D13*
X322580Y12700D03*
X347980Y12700D03*
X373380Y12700D03*
D12*
X436880Y109093D03*
X436880Y119507D03*
D10*
X492760Y381000D03*
X670560Y381000D03*
D11*
X474980Y398780D03*
X688340Y7620D03*
D10*
X492760Y25400D03*
X670560Y25400D03*
D12*
X492760Y109093D03*
X492760Y119507D03*
D13*
X556260Y12700D03*
X581660Y12700D03*
X607060Y12700D03*
D12*
X670560Y109093D03*
X670560Y119507D03*
D10*
X726440Y381000D03*
X904240Y381000D03*
D11*
X708660Y398780D03*
X922020Y7620D03*
D10*
X726440Y25400D03*
X904240Y25400D03*
D12*
X726440Y109093D03*
X726440Y119507D03*
D13*
X789940Y12700D03*
X815340Y12700D03*
X840740Y12700D03*
D12*
X904240Y109093D03*
X904240Y119507D03*
D10*
X960120Y381000D03*
X1137920Y381000D03*
D11*
X942340Y398780D03*
X1155700Y7620D03*
D10*
X960120Y25400D03*
X1137920Y25400D03*
D12*
X960120Y109093D03*
X960120Y119507D03*
D13*
X1023620Y12700D03*
X1049020Y12700D03*
X1074420Y12700D03*
D12*
X1137920Y109093D03*
X1137920Y119507D03*
D10*
X25400Y792480D03*
X203200Y792480D03*
D11*
X7620Y810260D03*
X220980Y419100D03*
D10*
X25400Y436880D03*
X203200Y436880D03*
D12*
X25400Y520573D03*
X25400Y530987D03*
D13*
X88900Y424180D03*
X114300Y424180D03*
X139700Y424180D03*
D12*
X203200Y520573D03*
X203200Y530987D03*
D10*
X259080Y792480D03*
X436880Y792480D03*
D11*
X241300Y810260D03*
X454660Y419100D03*
D10*
X259080Y436880D03*
X436880Y436880D03*
D12*
X259080Y520573D03*
X259080Y530987D03*
D13*
X322580Y424180D03*
X347980Y424180D03*
X373380Y424180D03*
D12*
X436880Y520573D03*
X436880Y530987D03*
D10*
X492760Y792480D03*
X670560Y792480D03*
D11*
X474980Y810260D03*
X688340Y419100D03*
D10*
X492760Y436880D03*
X670560Y436880D03*
D12*
X492760Y520573D03*
X492760Y530987D03*
D13*
X556260Y424180D03*
X581660Y424180D03*
X607060Y424180D03*
D12*
X670560Y520573D03*
X670560Y530987D03*
D10*
X726440Y792480D03*
X904240Y792480D03*
D11*
X708660Y810260D03*
X922020Y419100D03*
D10*
X726440Y436880D03*
X904240Y436880D03*
D12*
X726440Y520573D03*
X726440Y530987D03*
D13*
X789940Y424180D03*
X815340Y424180D03*
X840740Y424180D03*
D12*
X904240Y520573D03*
X904240Y530987D03*
D10*
X960120Y792480D03*
X1137920Y792480D03*
D11*
X942340Y810260D03*
X1155700Y419100D03*
D10*
X960120Y436880D03*
X1137920Y436880D03*
D12*
X960120Y520573D03*
X960120Y530987D03*
D13*
X1023620Y424180D03*
X1049020Y424180D03*
X1074420Y424180D03*
D12*
X1137920Y520573D03*
X1137920Y530987D03*
D10*
X25400Y1203960D03*
X203200Y1203960D03*
D11*
X7620Y1221740D03*
X220980Y830580D03*
D10*
X25400Y848360D03*
X203200Y848360D03*
D12*
X25400Y932053D03*
X25400Y942467D03*
D13*
X88900Y835660D03*
X114300Y835660D03*
X139700Y835660D03*
D12*
X203200Y932053D03*
X203200Y942467D03*
D10*
X259080Y1203960D03*
X436880Y1203960D03*
D11*
X241300Y1221740D03*
X454660Y830580D03*
D10*
X259080Y848360D03*
X436880Y848360D03*
D12*
X259080Y932053D03*
X259080Y942467D03*
D13*
X322580Y835660D03*
X347980Y835660D03*
X373380Y835660D03*
D12*
X436880Y932053D03*
X436880Y942467D03*
D10*
X492760Y1203960D03*
X670560Y1203960D03*
D11*
X474980Y1221740D03*
X688340Y830580D03*
D10*
X492760Y848360D03*
X670560Y848360D03*
D12*
X492760Y932053D03*
X492760Y942467D03*
D13*
X556260Y835660D03*
X581660Y835660D03*
X607060Y835660D03*
D12*
X670560Y932053D03*
X670560Y942467D03*
D10*
X726440Y1203960D03*
X904240Y1203960D03*
D11*
X708660Y1221740D03*
X922020Y830580D03*
D10*
X726440Y848360D03*
X904240Y848360D03*
D12*
X726440Y932053D03*
X726440Y942467D03*
D13*
X789940Y835660D03*
X815340Y835660D03*
X840740Y835660D03*
D12*
X904240Y932053D03*
X904240Y942467D03*
D10*
X960120Y1203960D03*
X1137920Y1203960D03*
D11*
X942340Y1221740D03*
X1155700Y830580D03*
D10*
X960120Y848360D03*
X1137920Y848360D03*
D12*
X960120Y932053D03*
X960120Y942467D03*
D13*
X1023620Y835660D03*
X1049020Y835660D03*
X1074420Y835660D03*
D12*
X1137920Y932053D03*
X1137920Y942467D03*
D11*
X68580Y1250315D03*
X1094105Y1250315D03*
M02*
