G04 EAGLE Gerber RS-274X export*
G75*
%MOMM*%
%FSLAX34Y34*%
%LPD*%
%INSolderpaste Top*%
%IPPOS*%
%AMOC8*
5,1,8,0,0,1.08239X$1,22.5*%
G01*
%ADD10R,1.100000X1.000000*%
%ADD11C,0.300000*%
%ADD12R,1.350000X0.550000*%
%ADD13R,1.000000X1.100000*%
%ADD14R,1.130000X2.440000*%
%ADD15R,0.800000X0.900000*%


D10*
X29600Y101600D03*
X46600Y101600D03*
D11*
X43370Y92400D02*
X43370Y85400D01*
X43370Y92400D02*
X50370Y92400D01*
X50370Y85400D01*
X43370Y85400D01*
X43370Y88250D02*
X50370Y88250D01*
X50370Y91100D02*
X43370Y91100D01*
X25830Y92400D02*
X25830Y85400D01*
X25830Y92400D02*
X32830Y92400D01*
X32830Y85400D01*
X25830Y85400D01*
X25830Y88250D02*
X32830Y88250D01*
X32830Y91100D02*
X25830Y91100D01*
D10*
X122800Y88900D03*
X105800Y88900D03*
D12*
X128051Y117500D03*
X128051Y127000D03*
X128051Y136500D03*
X100549Y136500D03*
X100549Y127000D03*
X100549Y117500D03*
D13*
X177800Y160900D03*
X177800Y143900D03*
X50800Y160900D03*
X50800Y143900D03*
X76200Y160900D03*
X76200Y143900D03*
X152400Y160900D03*
X152400Y143900D03*
D14*
X50800Y185600D03*
X76200Y185600D03*
X101600Y185600D03*
X127000Y185600D03*
X152400Y185600D03*
X177800Y185600D03*
X50800Y271600D03*
X76200Y271600D03*
X101600Y271600D03*
X127000Y271600D03*
X152400Y271600D03*
X177800Y271600D03*
D10*
X182000Y101600D03*
X199000Y101600D03*
D11*
X195770Y92400D02*
X195770Y85400D01*
X195770Y92400D02*
X202770Y92400D01*
X202770Y85400D01*
X195770Y85400D01*
X195770Y88250D02*
X202770Y88250D01*
X202770Y91100D02*
X195770Y91100D01*
X178230Y92400D02*
X178230Y85400D01*
X178230Y92400D02*
X185230Y92400D01*
X185230Y85400D01*
X178230Y85400D01*
X178230Y88250D02*
X185230Y88250D01*
X185230Y91100D02*
X178230Y91100D01*
D15*
X181000Y117000D03*
X200000Y117000D03*
X190500Y138000D03*
D10*
X263280Y101600D03*
X280280Y101600D03*
D11*
X277050Y92400D02*
X277050Y85400D01*
X277050Y92400D02*
X284050Y92400D01*
X284050Y85400D01*
X277050Y85400D01*
X277050Y88250D02*
X284050Y88250D01*
X284050Y91100D02*
X277050Y91100D01*
X259510Y92400D02*
X259510Y85400D01*
X259510Y92400D02*
X266510Y92400D01*
X266510Y85400D01*
X259510Y85400D01*
X259510Y88250D02*
X266510Y88250D01*
X266510Y91100D02*
X259510Y91100D01*
D10*
X356480Y88900D03*
X339480Y88900D03*
D12*
X361731Y117500D03*
X361731Y127000D03*
X361731Y136500D03*
X334229Y136500D03*
X334229Y127000D03*
X334229Y117500D03*
D13*
X411480Y160900D03*
X411480Y143900D03*
X284480Y160900D03*
X284480Y143900D03*
X309880Y160900D03*
X309880Y143900D03*
X386080Y160900D03*
X386080Y143900D03*
D14*
X284480Y185600D03*
X309880Y185600D03*
X335280Y185600D03*
X360680Y185600D03*
X386080Y185600D03*
X411480Y185600D03*
X284480Y271600D03*
X309880Y271600D03*
X335280Y271600D03*
X360680Y271600D03*
X386080Y271600D03*
X411480Y271600D03*
D10*
X415680Y101600D03*
X432680Y101600D03*
D11*
X429450Y92400D02*
X429450Y85400D01*
X429450Y92400D02*
X436450Y92400D01*
X436450Y85400D01*
X429450Y85400D01*
X429450Y88250D02*
X436450Y88250D01*
X436450Y91100D02*
X429450Y91100D01*
X411910Y92400D02*
X411910Y85400D01*
X411910Y92400D02*
X418910Y92400D01*
X418910Y85400D01*
X411910Y85400D01*
X411910Y88250D02*
X418910Y88250D01*
X418910Y91100D02*
X411910Y91100D01*
D15*
X414680Y117000D03*
X433680Y117000D03*
X424180Y138000D03*
D10*
X496960Y101600D03*
X513960Y101600D03*
D11*
X510730Y92400D02*
X510730Y85400D01*
X510730Y92400D02*
X517730Y92400D01*
X517730Y85400D01*
X510730Y85400D01*
X510730Y88250D02*
X517730Y88250D01*
X517730Y91100D02*
X510730Y91100D01*
X493190Y92400D02*
X493190Y85400D01*
X493190Y92400D02*
X500190Y92400D01*
X500190Y85400D01*
X493190Y85400D01*
X493190Y88250D02*
X500190Y88250D01*
X500190Y91100D02*
X493190Y91100D01*
D10*
X590160Y88900D03*
X573160Y88900D03*
D12*
X595411Y117500D03*
X595411Y127000D03*
X595411Y136500D03*
X567909Y136500D03*
X567909Y127000D03*
X567909Y117500D03*
D13*
X645160Y160900D03*
X645160Y143900D03*
X518160Y160900D03*
X518160Y143900D03*
X543560Y160900D03*
X543560Y143900D03*
X619760Y160900D03*
X619760Y143900D03*
D14*
X518160Y185600D03*
X543560Y185600D03*
X568960Y185600D03*
X594360Y185600D03*
X619760Y185600D03*
X645160Y185600D03*
X518160Y271600D03*
X543560Y271600D03*
X568960Y271600D03*
X594360Y271600D03*
X619760Y271600D03*
X645160Y271600D03*
D10*
X649360Y101600D03*
X666360Y101600D03*
D11*
X663130Y92400D02*
X663130Y85400D01*
X663130Y92400D02*
X670130Y92400D01*
X670130Y85400D01*
X663130Y85400D01*
X663130Y88250D02*
X670130Y88250D01*
X670130Y91100D02*
X663130Y91100D01*
X645590Y92400D02*
X645590Y85400D01*
X645590Y92400D02*
X652590Y92400D01*
X652590Y85400D01*
X645590Y85400D01*
X645590Y88250D02*
X652590Y88250D01*
X652590Y91100D02*
X645590Y91100D01*
D15*
X648360Y117000D03*
X667360Y117000D03*
X657860Y138000D03*
D10*
X730640Y101600D03*
X747640Y101600D03*
D11*
X744410Y92400D02*
X744410Y85400D01*
X744410Y92400D02*
X751410Y92400D01*
X751410Y85400D01*
X744410Y85400D01*
X744410Y88250D02*
X751410Y88250D01*
X751410Y91100D02*
X744410Y91100D01*
X726870Y92400D02*
X726870Y85400D01*
X726870Y92400D02*
X733870Y92400D01*
X733870Y85400D01*
X726870Y85400D01*
X726870Y88250D02*
X733870Y88250D01*
X733870Y91100D02*
X726870Y91100D01*
D10*
X823840Y88900D03*
X806840Y88900D03*
D12*
X829091Y117500D03*
X829091Y127000D03*
X829091Y136500D03*
X801589Y136500D03*
X801589Y127000D03*
X801589Y117500D03*
D13*
X878840Y160900D03*
X878840Y143900D03*
X751840Y160900D03*
X751840Y143900D03*
X777240Y160900D03*
X777240Y143900D03*
X853440Y160900D03*
X853440Y143900D03*
D14*
X751840Y185600D03*
X777240Y185600D03*
X802640Y185600D03*
X828040Y185600D03*
X853440Y185600D03*
X878840Y185600D03*
X751840Y271600D03*
X777240Y271600D03*
X802640Y271600D03*
X828040Y271600D03*
X853440Y271600D03*
X878840Y271600D03*
D10*
X883040Y101600D03*
X900040Y101600D03*
D11*
X896810Y92400D02*
X896810Y85400D01*
X896810Y92400D02*
X903810Y92400D01*
X903810Y85400D01*
X896810Y85400D01*
X896810Y88250D02*
X903810Y88250D01*
X903810Y91100D02*
X896810Y91100D01*
X879270Y92400D02*
X879270Y85400D01*
X879270Y92400D02*
X886270Y92400D01*
X886270Y85400D01*
X879270Y85400D01*
X879270Y88250D02*
X886270Y88250D01*
X886270Y91100D02*
X879270Y91100D01*
D15*
X882040Y117000D03*
X901040Y117000D03*
X891540Y138000D03*
D10*
X964320Y101600D03*
X981320Y101600D03*
D11*
X978090Y92400D02*
X978090Y85400D01*
X978090Y92400D02*
X985090Y92400D01*
X985090Y85400D01*
X978090Y85400D01*
X978090Y88250D02*
X985090Y88250D01*
X985090Y91100D02*
X978090Y91100D01*
X960550Y92400D02*
X960550Y85400D01*
X960550Y92400D02*
X967550Y92400D01*
X967550Y85400D01*
X960550Y85400D01*
X960550Y88250D02*
X967550Y88250D01*
X967550Y91100D02*
X960550Y91100D01*
D10*
X1057520Y88900D03*
X1040520Y88900D03*
D12*
X1062771Y117500D03*
X1062771Y127000D03*
X1062771Y136500D03*
X1035269Y136500D03*
X1035269Y127000D03*
X1035269Y117500D03*
D13*
X1112520Y160900D03*
X1112520Y143900D03*
X985520Y160900D03*
X985520Y143900D03*
X1010920Y160900D03*
X1010920Y143900D03*
X1087120Y160900D03*
X1087120Y143900D03*
D14*
X985520Y185600D03*
X1010920Y185600D03*
X1036320Y185600D03*
X1061720Y185600D03*
X1087120Y185600D03*
X1112520Y185600D03*
X985520Y271600D03*
X1010920Y271600D03*
X1036320Y271600D03*
X1061720Y271600D03*
X1087120Y271600D03*
X1112520Y271600D03*
D10*
X1116720Y101600D03*
X1133720Y101600D03*
D11*
X1130490Y92400D02*
X1130490Y85400D01*
X1130490Y92400D02*
X1137490Y92400D01*
X1137490Y85400D01*
X1130490Y85400D01*
X1130490Y88250D02*
X1137490Y88250D01*
X1137490Y91100D02*
X1130490Y91100D01*
X1112950Y92400D02*
X1112950Y85400D01*
X1112950Y92400D02*
X1119950Y92400D01*
X1119950Y85400D01*
X1112950Y85400D01*
X1112950Y88250D02*
X1119950Y88250D01*
X1119950Y91100D02*
X1112950Y91100D01*
D15*
X1115720Y117000D03*
X1134720Y117000D03*
X1125220Y138000D03*
D10*
X29600Y513080D03*
X46600Y513080D03*
D11*
X43370Y503880D02*
X43370Y496880D01*
X43370Y503880D02*
X50370Y503880D01*
X50370Y496880D01*
X43370Y496880D01*
X43370Y499730D02*
X50370Y499730D01*
X50370Y502580D02*
X43370Y502580D01*
X25830Y503880D02*
X25830Y496880D01*
X25830Y503880D02*
X32830Y503880D01*
X32830Y496880D01*
X25830Y496880D01*
X25830Y499730D02*
X32830Y499730D01*
X32830Y502580D02*
X25830Y502580D01*
D10*
X122800Y500380D03*
X105800Y500380D03*
D12*
X128051Y528980D03*
X128051Y538480D03*
X128051Y547980D03*
X100549Y547980D03*
X100549Y538480D03*
X100549Y528980D03*
D13*
X177800Y572380D03*
X177800Y555380D03*
X50800Y572380D03*
X50800Y555380D03*
X76200Y572380D03*
X76200Y555380D03*
X152400Y572380D03*
X152400Y555380D03*
D14*
X50800Y597080D03*
X76200Y597080D03*
X101600Y597080D03*
X127000Y597080D03*
X152400Y597080D03*
X177800Y597080D03*
X50800Y683080D03*
X76200Y683080D03*
X101600Y683080D03*
X127000Y683080D03*
X152400Y683080D03*
X177800Y683080D03*
D10*
X182000Y513080D03*
X199000Y513080D03*
D11*
X195770Y503880D02*
X195770Y496880D01*
X195770Y503880D02*
X202770Y503880D01*
X202770Y496880D01*
X195770Y496880D01*
X195770Y499730D02*
X202770Y499730D01*
X202770Y502580D02*
X195770Y502580D01*
X178230Y503880D02*
X178230Y496880D01*
X178230Y503880D02*
X185230Y503880D01*
X185230Y496880D01*
X178230Y496880D01*
X178230Y499730D02*
X185230Y499730D01*
X185230Y502580D02*
X178230Y502580D01*
D15*
X181000Y528480D03*
X200000Y528480D03*
X190500Y549480D03*
D10*
X263280Y513080D03*
X280280Y513080D03*
D11*
X277050Y503880D02*
X277050Y496880D01*
X277050Y503880D02*
X284050Y503880D01*
X284050Y496880D01*
X277050Y496880D01*
X277050Y499730D02*
X284050Y499730D01*
X284050Y502580D02*
X277050Y502580D01*
X259510Y503880D02*
X259510Y496880D01*
X259510Y503880D02*
X266510Y503880D01*
X266510Y496880D01*
X259510Y496880D01*
X259510Y499730D02*
X266510Y499730D01*
X266510Y502580D02*
X259510Y502580D01*
D10*
X356480Y500380D03*
X339480Y500380D03*
D12*
X361731Y528980D03*
X361731Y538480D03*
X361731Y547980D03*
X334229Y547980D03*
X334229Y538480D03*
X334229Y528980D03*
D13*
X411480Y572380D03*
X411480Y555380D03*
X284480Y572380D03*
X284480Y555380D03*
X309880Y572380D03*
X309880Y555380D03*
X386080Y572380D03*
X386080Y555380D03*
D14*
X284480Y597080D03*
X309880Y597080D03*
X335280Y597080D03*
X360680Y597080D03*
X386080Y597080D03*
X411480Y597080D03*
X284480Y683080D03*
X309880Y683080D03*
X335280Y683080D03*
X360680Y683080D03*
X386080Y683080D03*
X411480Y683080D03*
D10*
X415680Y513080D03*
X432680Y513080D03*
D11*
X429450Y503880D02*
X429450Y496880D01*
X429450Y503880D02*
X436450Y503880D01*
X436450Y496880D01*
X429450Y496880D01*
X429450Y499730D02*
X436450Y499730D01*
X436450Y502580D02*
X429450Y502580D01*
X411910Y503880D02*
X411910Y496880D01*
X411910Y503880D02*
X418910Y503880D01*
X418910Y496880D01*
X411910Y496880D01*
X411910Y499730D02*
X418910Y499730D01*
X418910Y502580D02*
X411910Y502580D01*
D15*
X414680Y528480D03*
X433680Y528480D03*
X424180Y549480D03*
D10*
X496960Y513080D03*
X513960Y513080D03*
D11*
X510730Y503880D02*
X510730Y496880D01*
X510730Y503880D02*
X517730Y503880D01*
X517730Y496880D01*
X510730Y496880D01*
X510730Y499730D02*
X517730Y499730D01*
X517730Y502580D02*
X510730Y502580D01*
X493190Y503880D02*
X493190Y496880D01*
X493190Y503880D02*
X500190Y503880D01*
X500190Y496880D01*
X493190Y496880D01*
X493190Y499730D02*
X500190Y499730D01*
X500190Y502580D02*
X493190Y502580D01*
D10*
X590160Y500380D03*
X573160Y500380D03*
D12*
X595411Y528980D03*
X595411Y538480D03*
X595411Y547980D03*
X567909Y547980D03*
X567909Y538480D03*
X567909Y528980D03*
D13*
X645160Y572380D03*
X645160Y555380D03*
X518160Y572380D03*
X518160Y555380D03*
X543560Y572380D03*
X543560Y555380D03*
X619760Y572380D03*
X619760Y555380D03*
D14*
X518160Y597080D03*
X543560Y597080D03*
X568960Y597080D03*
X594360Y597080D03*
X619760Y597080D03*
X645160Y597080D03*
X518160Y683080D03*
X543560Y683080D03*
X568960Y683080D03*
X594360Y683080D03*
X619760Y683080D03*
X645160Y683080D03*
D10*
X649360Y513080D03*
X666360Y513080D03*
D11*
X663130Y503880D02*
X663130Y496880D01*
X663130Y503880D02*
X670130Y503880D01*
X670130Y496880D01*
X663130Y496880D01*
X663130Y499730D02*
X670130Y499730D01*
X670130Y502580D02*
X663130Y502580D01*
X645590Y503880D02*
X645590Y496880D01*
X645590Y503880D02*
X652590Y503880D01*
X652590Y496880D01*
X645590Y496880D01*
X645590Y499730D02*
X652590Y499730D01*
X652590Y502580D02*
X645590Y502580D01*
D15*
X648360Y528480D03*
X667360Y528480D03*
X657860Y549480D03*
D10*
X730640Y513080D03*
X747640Y513080D03*
D11*
X744410Y503880D02*
X744410Y496880D01*
X744410Y503880D02*
X751410Y503880D01*
X751410Y496880D01*
X744410Y496880D01*
X744410Y499730D02*
X751410Y499730D01*
X751410Y502580D02*
X744410Y502580D01*
X726870Y503880D02*
X726870Y496880D01*
X726870Y503880D02*
X733870Y503880D01*
X733870Y496880D01*
X726870Y496880D01*
X726870Y499730D02*
X733870Y499730D01*
X733870Y502580D02*
X726870Y502580D01*
D10*
X823840Y500380D03*
X806840Y500380D03*
D12*
X829091Y528980D03*
X829091Y538480D03*
X829091Y547980D03*
X801589Y547980D03*
X801589Y538480D03*
X801589Y528980D03*
D13*
X878840Y572380D03*
X878840Y555380D03*
X751840Y572380D03*
X751840Y555380D03*
X777240Y572380D03*
X777240Y555380D03*
X853440Y572380D03*
X853440Y555380D03*
D14*
X751840Y597080D03*
X777240Y597080D03*
X802640Y597080D03*
X828040Y597080D03*
X853440Y597080D03*
X878840Y597080D03*
X751840Y683080D03*
X777240Y683080D03*
X802640Y683080D03*
X828040Y683080D03*
X853440Y683080D03*
X878840Y683080D03*
D10*
X883040Y513080D03*
X900040Y513080D03*
D11*
X896810Y503880D02*
X896810Y496880D01*
X896810Y503880D02*
X903810Y503880D01*
X903810Y496880D01*
X896810Y496880D01*
X896810Y499730D02*
X903810Y499730D01*
X903810Y502580D02*
X896810Y502580D01*
X879270Y503880D02*
X879270Y496880D01*
X879270Y503880D02*
X886270Y503880D01*
X886270Y496880D01*
X879270Y496880D01*
X879270Y499730D02*
X886270Y499730D01*
X886270Y502580D02*
X879270Y502580D01*
D15*
X882040Y528480D03*
X901040Y528480D03*
X891540Y549480D03*
D10*
X964320Y513080D03*
X981320Y513080D03*
D11*
X978090Y503880D02*
X978090Y496880D01*
X978090Y503880D02*
X985090Y503880D01*
X985090Y496880D01*
X978090Y496880D01*
X978090Y499730D02*
X985090Y499730D01*
X985090Y502580D02*
X978090Y502580D01*
X960550Y503880D02*
X960550Y496880D01*
X960550Y503880D02*
X967550Y503880D01*
X967550Y496880D01*
X960550Y496880D01*
X960550Y499730D02*
X967550Y499730D01*
X967550Y502580D02*
X960550Y502580D01*
D10*
X1057520Y500380D03*
X1040520Y500380D03*
D12*
X1062771Y528980D03*
X1062771Y538480D03*
X1062771Y547980D03*
X1035269Y547980D03*
X1035269Y538480D03*
X1035269Y528980D03*
D13*
X1112520Y572380D03*
X1112520Y555380D03*
X985520Y572380D03*
X985520Y555380D03*
X1010920Y572380D03*
X1010920Y555380D03*
X1087120Y572380D03*
X1087120Y555380D03*
D14*
X985520Y597080D03*
X1010920Y597080D03*
X1036320Y597080D03*
X1061720Y597080D03*
X1087120Y597080D03*
X1112520Y597080D03*
X985520Y683080D03*
X1010920Y683080D03*
X1036320Y683080D03*
X1061720Y683080D03*
X1087120Y683080D03*
X1112520Y683080D03*
D10*
X1116720Y513080D03*
X1133720Y513080D03*
D11*
X1130490Y503880D02*
X1130490Y496880D01*
X1130490Y503880D02*
X1137490Y503880D01*
X1137490Y496880D01*
X1130490Y496880D01*
X1130490Y499730D02*
X1137490Y499730D01*
X1137490Y502580D02*
X1130490Y502580D01*
X1112950Y503880D02*
X1112950Y496880D01*
X1112950Y503880D02*
X1119950Y503880D01*
X1119950Y496880D01*
X1112950Y496880D01*
X1112950Y499730D02*
X1119950Y499730D01*
X1119950Y502580D02*
X1112950Y502580D01*
D15*
X1115720Y528480D03*
X1134720Y528480D03*
X1125220Y549480D03*
D10*
X29600Y924560D03*
X46600Y924560D03*
D11*
X43370Y915360D02*
X43370Y908360D01*
X43370Y915360D02*
X50370Y915360D01*
X50370Y908360D01*
X43370Y908360D01*
X43370Y911210D02*
X50370Y911210D01*
X50370Y914060D02*
X43370Y914060D01*
X25830Y915360D02*
X25830Y908360D01*
X25830Y915360D02*
X32830Y915360D01*
X32830Y908360D01*
X25830Y908360D01*
X25830Y911210D02*
X32830Y911210D01*
X32830Y914060D02*
X25830Y914060D01*
D10*
X122800Y911860D03*
X105800Y911860D03*
D12*
X128051Y940460D03*
X128051Y949960D03*
X128051Y959460D03*
X100549Y959460D03*
X100549Y949960D03*
X100549Y940460D03*
D13*
X177800Y983860D03*
X177800Y966860D03*
X50800Y983860D03*
X50800Y966860D03*
X76200Y983860D03*
X76200Y966860D03*
X152400Y983860D03*
X152400Y966860D03*
D14*
X50800Y1008560D03*
X76200Y1008560D03*
X101600Y1008560D03*
X127000Y1008560D03*
X152400Y1008560D03*
X177800Y1008560D03*
X50800Y1094560D03*
X76200Y1094560D03*
X101600Y1094560D03*
X127000Y1094560D03*
X152400Y1094560D03*
X177800Y1094560D03*
D10*
X182000Y924560D03*
X199000Y924560D03*
D11*
X195770Y915360D02*
X195770Y908360D01*
X195770Y915360D02*
X202770Y915360D01*
X202770Y908360D01*
X195770Y908360D01*
X195770Y911210D02*
X202770Y911210D01*
X202770Y914060D02*
X195770Y914060D01*
X178230Y915360D02*
X178230Y908360D01*
X178230Y915360D02*
X185230Y915360D01*
X185230Y908360D01*
X178230Y908360D01*
X178230Y911210D02*
X185230Y911210D01*
X185230Y914060D02*
X178230Y914060D01*
D15*
X181000Y939960D03*
X200000Y939960D03*
X190500Y960960D03*
D10*
X263280Y924560D03*
X280280Y924560D03*
D11*
X277050Y915360D02*
X277050Y908360D01*
X277050Y915360D02*
X284050Y915360D01*
X284050Y908360D01*
X277050Y908360D01*
X277050Y911210D02*
X284050Y911210D01*
X284050Y914060D02*
X277050Y914060D01*
X259510Y915360D02*
X259510Y908360D01*
X259510Y915360D02*
X266510Y915360D01*
X266510Y908360D01*
X259510Y908360D01*
X259510Y911210D02*
X266510Y911210D01*
X266510Y914060D02*
X259510Y914060D01*
D10*
X356480Y911860D03*
X339480Y911860D03*
D12*
X361731Y940460D03*
X361731Y949960D03*
X361731Y959460D03*
X334229Y959460D03*
X334229Y949960D03*
X334229Y940460D03*
D13*
X411480Y983860D03*
X411480Y966860D03*
X284480Y983860D03*
X284480Y966860D03*
X309880Y983860D03*
X309880Y966860D03*
X386080Y983860D03*
X386080Y966860D03*
D14*
X284480Y1008560D03*
X309880Y1008560D03*
X335280Y1008560D03*
X360680Y1008560D03*
X386080Y1008560D03*
X411480Y1008560D03*
X284480Y1094560D03*
X309880Y1094560D03*
X335280Y1094560D03*
X360680Y1094560D03*
X386080Y1094560D03*
X411480Y1094560D03*
D10*
X415680Y924560D03*
X432680Y924560D03*
D11*
X429450Y915360D02*
X429450Y908360D01*
X429450Y915360D02*
X436450Y915360D01*
X436450Y908360D01*
X429450Y908360D01*
X429450Y911210D02*
X436450Y911210D01*
X436450Y914060D02*
X429450Y914060D01*
X411910Y915360D02*
X411910Y908360D01*
X411910Y915360D02*
X418910Y915360D01*
X418910Y908360D01*
X411910Y908360D01*
X411910Y911210D02*
X418910Y911210D01*
X418910Y914060D02*
X411910Y914060D01*
D15*
X414680Y939960D03*
X433680Y939960D03*
X424180Y960960D03*
D10*
X496960Y924560D03*
X513960Y924560D03*
D11*
X510730Y915360D02*
X510730Y908360D01*
X510730Y915360D02*
X517730Y915360D01*
X517730Y908360D01*
X510730Y908360D01*
X510730Y911210D02*
X517730Y911210D01*
X517730Y914060D02*
X510730Y914060D01*
X493190Y915360D02*
X493190Y908360D01*
X493190Y915360D02*
X500190Y915360D01*
X500190Y908360D01*
X493190Y908360D01*
X493190Y911210D02*
X500190Y911210D01*
X500190Y914060D02*
X493190Y914060D01*
D10*
X590160Y911860D03*
X573160Y911860D03*
D12*
X595411Y940460D03*
X595411Y949960D03*
X595411Y959460D03*
X567909Y959460D03*
X567909Y949960D03*
X567909Y940460D03*
D13*
X645160Y983860D03*
X645160Y966860D03*
X518160Y983860D03*
X518160Y966860D03*
X543560Y983860D03*
X543560Y966860D03*
X619760Y983860D03*
X619760Y966860D03*
D14*
X518160Y1008560D03*
X543560Y1008560D03*
X568960Y1008560D03*
X594360Y1008560D03*
X619760Y1008560D03*
X645160Y1008560D03*
X518160Y1094560D03*
X543560Y1094560D03*
X568960Y1094560D03*
X594360Y1094560D03*
X619760Y1094560D03*
X645160Y1094560D03*
D10*
X649360Y924560D03*
X666360Y924560D03*
D11*
X663130Y915360D02*
X663130Y908360D01*
X663130Y915360D02*
X670130Y915360D01*
X670130Y908360D01*
X663130Y908360D01*
X663130Y911210D02*
X670130Y911210D01*
X670130Y914060D02*
X663130Y914060D01*
X645590Y915360D02*
X645590Y908360D01*
X645590Y915360D02*
X652590Y915360D01*
X652590Y908360D01*
X645590Y908360D01*
X645590Y911210D02*
X652590Y911210D01*
X652590Y914060D02*
X645590Y914060D01*
D15*
X648360Y939960D03*
X667360Y939960D03*
X657860Y960960D03*
D10*
X730640Y924560D03*
X747640Y924560D03*
D11*
X744410Y915360D02*
X744410Y908360D01*
X744410Y915360D02*
X751410Y915360D01*
X751410Y908360D01*
X744410Y908360D01*
X744410Y911210D02*
X751410Y911210D01*
X751410Y914060D02*
X744410Y914060D01*
X726870Y915360D02*
X726870Y908360D01*
X726870Y915360D02*
X733870Y915360D01*
X733870Y908360D01*
X726870Y908360D01*
X726870Y911210D02*
X733870Y911210D01*
X733870Y914060D02*
X726870Y914060D01*
D10*
X823840Y911860D03*
X806840Y911860D03*
D12*
X829091Y940460D03*
X829091Y949960D03*
X829091Y959460D03*
X801589Y959460D03*
X801589Y949960D03*
X801589Y940460D03*
D13*
X878840Y983860D03*
X878840Y966860D03*
X751840Y983860D03*
X751840Y966860D03*
X777240Y983860D03*
X777240Y966860D03*
X853440Y983860D03*
X853440Y966860D03*
D14*
X751840Y1008560D03*
X777240Y1008560D03*
X802640Y1008560D03*
X828040Y1008560D03*
X853440Y1008560D03*
X878840Y1008560D03*
X751840Y1094560D03*
X777240Y1094560D03*
X802640Y1094560D03*
X828040Y1094560D03*
X853440Y1094560D03*
X878840Y1094560D03*
D10*
X883040Y924560D03*
X900040Y924560D03*
D11*
X896810Y915360D02*
X896810Y908360D01*
X896810Y915360D02*
X903810Y915360D01*
X903810Y908360D01*
X896810Y908360D01*
X896810Y911210D02*
X903810Y911210D01*
X903810Y914060D02*
X896810Y914060D01*
X879270Y915360D02*
X879270Y908360D01*
X879270Y915360D02*
X886270Y915360D01*
X886270Y908360D01*
X879270Y908360D01*
X879270Y911210D02*
X886270Y911210D01*
X886270Y914060D02*
X879270Y914060D01*
D15*
X882040Y939960D03*
X901040Y939960D03*
X891540Y960960D03*
D10*
X964320Y924560D03*
X981320Y924560D03*
D11*
X978090Y915360D02*
X978090Y908360D01*
X978090Y915360D02*
X985090Y915360D01*
X985090Y908360D01*
X978090Y908360D01*
X978090Y911210D02*
X985090Y911210D01*
X985090Y914060D02*
X978090Y914060D01*
X960550Y915360D02*
X960550Y908360D01*
X960550Y915360D02*
X967550Y915360D01*
X967550Y908360D01*
X960550Y908360D01*
X960550Y911210D02*
X967550Y911210D01*
X967550Y914060D02*
X960550Y914060D01*
D10*
X1057520Y911860D03*
X1040520Y911860D03*
D12*
X1062771Y940460D03*
X1062771Y949960D03*
X1062771Y959460D03*
X1035269Y959460D03*
X1035269Y949960D03*
X1035269Y940460D03*
D13*
X1112520Y983860D03*
X1112520Y966860D03*
X985520Y983860D03*
X985520Y966860D03*
X1010920Y983860D03*
X1010920Y966860D03*
X1087120Y983860D03*
X1087120Y966860D03*
D14*
X985520Y1008560D03*
X1010920Y1008560D03*
X1036320Y1008560D03*
X1061720Y1008560D03*
X1087120Y1008560D03*
X1112520Y1008560D03*
X985520Y1094560D03*
X1010920Y1094560D03*
X1036320Y1094560D03*
X1061720Y1094560D03*
X1087120Y1094560D03*
X1112520Y1094560D03*
D10*
X1116720Y924560D03*
X1133720Y924560D03*
D11*
X1130490Y915360D02*
X1130490Y908360D01*
X1130490Y915360D02*
X1137490Y915360D01*
X1137490Y908360D01*
X1130490Y908360D01*
X1130490Y911210D02*
X1137490Y911210D01*
X1137490Y914060D02*
X1130490Y914060D01*
X1112950Y915360D02*
X1112950Y908360D01*
X1112950Y915360D02*
X1119950Y915360D01*
X1119950Y908360D01*
X1112950Y908360D01*
X1112950Y911210D02*
X1119950Y911210D01*
X1119950Y914060D02*
X1112950Y914060D01*
D15*
X1115720Y939960D03*
X1134720Y939960D03*
X1125220Y960960D03*
M02*
